<svg width="291" height="291" viewBox="0 0 291 291" fill="none" xmlns="http://www.w3.org/2000/svg">
<path d="M129.204 41.776C129.204 41.776 110.673 55.9652 108.793 63.0539C106.913 70.1427 109.515 82.5975 108.793 85.0593C108.071 87.5212 96.4896 94.4645 96.3441 104.452C96.1986 114.439 100.686 124.286 136.729 128.622C172.772 132.958 186.519 112.553 186.519 101.553C186.519 90.5534 177.26 83.6044 175.665 78.3955C174.07 73.1866 180.734 63.7756 171.178 52.2055C161.621 40.6353 136.729 29.4725 129.204 41.776Z" fill="#263238" stroke="#263238" stroke-width="0.582" stroke-linejoin="round"/>
<path d="M209.601 170.328C209.601 170.328 212.948 199.073 213.646 206.744C214.345 214.415 212.529 218.884 207.087 221.678C201.645 224.472 198.718 226.282 193.119 220.561C187.52 214.839 191.443 203.816 191.164 199.486C190.884 195.156 186.979 178.534 186.979 178.534L209.601 170.328Z" fill="white" stroke="#263238" stroke-width="0.582" stroke-linejoin="round"/>
<path d="M210.259 178.389L189.086 185.454L186.997 178.558L209.601 170.322L210.259 178.389Z" fill="#263238" stroke="#263238" stroke-width="0.582" stroke-linejoin="round"/>
<path d="M196.763 197.816C196.763 197.816 206.529 195.302 211.132 204.375L196.763 197.816Z" fill="white"/>
<path d="M196.763 197.816C196.763 197.816 206.529 195.302 211.132 204.375" stroke="#263238" stroke-width="0.582" stroke-linejoin="round"/>
<path d="M176.835 207.437L182.445 174.687L209.648 167.209C209.648 167.209 208.664 144.767 202.774 136.013C196.885 127.26 181.601 122.325 171.928 119.217C162.256 116.109 153.136 114.276 153.136 114.276C153.136 114.276 135.745 111.878 128.034 116.115C128.034 116.115 101.669 127.685 97.0425 129.943C92.4156 132.201 87.2299 134.745 85.2628 145.611C83.2956 156.477 82.3179 166.219 82.3179 166.219L100.406 175.252L105.877 207.437L104.713 216.545L84.4771 256.953H198.7L178.156 215.922L176.835 207.437Z" fill="#ABABAB" stroke="#263238" stroke-width="0.582" stroke-linejoin="round"/>
<path d="M147.508 165.678C148.125 165.678 148.626 165.178 148.626 164.561C148.626 163.943 148.125 163.443 147.508 163.443C146.891 163.443 146.391 163.943 146.391 164.561C146.391 165.178 146.891 165.678 147.508 165.678Z" stroke="#263238" stroke-width="0.582" stroke-linejoin="round"/>
<path d="M147.508 182.777C148.125 182.777 148.626 182.277 148.626 181.66C148.626 181.043 148.125 180.542 147.508 180.542C146.891 180.542 146.391 181.043 146.391 181.66C146.391 182.277 146.891 182.777 147.508 182.777Z" stroke="#263238" stroke-width="0.582" stroke-linejoin="round"/>
<path d="M147.508 199.871C148.125 199.871 148.626 199.37 148.626 198.753C148.626 198.136 148.125 197.636 147.508 197.636C146.891 197.636 146.391 198.136 146.391 198.753C146.391 199.37 146.891 199.871 147.508 199.871Z" stroke="#263238" stroke-width="0.582" stroke-linejoin="round"/>
<path d="M148.626 215.846C148.626 216.067 148.56 216.283 148.437 216.467C148.314 216.651 148.14 216.794 147.936 216.879C147.732 216.963 147.507 216.986 147.29 216.942C147.073 216.899 146.874 216.793 146.718 216.637C146.562 216.48 146.455 216.281 146.412 216.064C146.369 215.848 146.391 215.623 146.476 215.419C146.56 215.215 146.703 215.04 146.887 214.917C147.071 214.795 147.287 214.729 147.508 214.729C147.804 214.729 148.089 214.847 148.298 215.056C148.508 215.266 148.626 215.55 148.626 215.846Z" stroke="#263238" stroke-width="0.582" stroke-linejoin="round"/>
<path d="M147.508 234.057C148.125 234.057 148.626 233.557 148.626 232.94C148.626 232.323 148.125 231.822 147.508 231.822C146.891 231.822 146.391 232.323 146.391 232.94C146.391 233.557 146.891 234.057 147.508 234.057Z" stroke="#263238" stroke-width="0.582" stroke-linejoin="round"/>
<path d="M148.626 250.039C148.626 250.26 148.56 250.476 148.437 250.66C148.314 250.843 148.14 250.987 147.936 251.071C147.732 251.156 147.507 251.178 147.29 251.135C147.073 251.092 146.874 250.985 146.718 250.829C146.562 250.673 146.455 250.474 146.412 250.257C146.369 250.04 146.391 249.815 146.476 249.611C146.56 249.407 146.703 249.232 146.887 249.11C147.071 248.987 147.287 248.921 147.508 248.921C147.804 248.921 148.089 249.039 148.298 249.249C148.508 249.458 148.626 249.742 148.626 250.039Z" stroke="#263238" stroke-width="0.582" stroke-linejoin="round"/>
<path d="M143.445 158.176V244.196" stroke="#263238" stroke-width="0.582" stroke-linejoin="round"/>
<path d="M182.765 163.792L181.293 172.429L186.7 163.228" stroke="#263238" stroke-width="0.582" stroke-linejoin="round"/>
<path d="M102.211 163.792L103.683 172.429L98.2764 163.228" stroke="#263238" stroke-width="0.582" stroke-linejoin="round"/>
<path d="M119.554 141.234C119.554 141.234 115.975 147.112 117.768 146.6C119.56 146.088 129.524 139.447 129.524 139.447C129.524 139.447 125.689 145.325 128.756 147.368C131.823 149.411 144.336 155.342 144.336 155.342C144.336 155.342 159.171 149.417 159.427 147.112C159.683 144.807 158.915 143.789 158.915 142.514C158.915 141.24 157.379 139.703 160.452 140.722C163.524 141.74 174.763 147.88 173.995 146.35C173.226 144.819 160.783 120.16 159.084 119.322C157.384 118.484 134.378 117.715 130.286 120.02C126.195 122.325 119.554 141.234 119.554 141.234Z" fill="#263238" stroke="#263238" stroke-width="0.582" stroke-linejoin="round"/>
<path d="M78.8434 158.851L76.6958 169.269L102.135 181.77L104.614 172.912L78.8434 158.851Z" fill="#ABABAB" stroke="#263238" stroke-width="0.582" stroke-linejoin="round"/>
<path d="M181.293 172.429L183.673 181.607L213.827 172.575L209.759 161.703L181.293 172.429Z" fill="#ABABAB" stroke="#263238" stroke-width="0.582" stroke-linejoin="round"/>
<path d="M129.972 108.939C129.972 108.939 123.454 116.842 122.755 118.105C122.057 119.368 116.883 139.936 114.776 144.004C112.669 148.073 115.899 146.804 118.14 144.284C120.381 141.764 129.78 136.136 129.501 137.829C129.221 139.523 126.695 143.579 128.238 144.423C129.78 145.267 142.404 155.784 143.521 155.784C144.638 155.784 160.632 145.547 161.191 144.144C161.749 142.741 158.106 137.16 159.933 137.41C161.761 137.661 175.065 149.894 176.619 148.911C178.173 147.927 169.606 128.017 165.561 119.042C164.318 116.14 162.323 113.622 159.782 111.749C157.24 109.875 154.245 108.714 151.104 108.386C148.84 108.252 129.972 108.939 129.972 108.939Z" fill="#ABABAB" stroke="#263238" stroke-width="0.582" stroke-linejoin="round"/>
<path d="M130.368 105.86C130.368 105.86 127.842 117.221 127.842 120.305C127.842 123.39 141.706 159.404 144.365 155.342C147.025 151.279 159.113 121.586 159.113 119.322C159.113 117.058 157.99 105.016 157.99 105.016C157.99 105.016 148.177 111.61 143.97 112.029C139.762 112.448 130.368 105.86 130.368 105.86Z" fill="white" stroke="#263238" stroke-width="0.582" stroke-linejoin="round"/>
<path d="M129.612 107.536C129.612 107.536 125.712 122.802 129.856 123.966C134 125.13 157.676 109.014 157.676 109.014L129.612 107.536Z" fill="#263238" stroke="#263238" stroke-width="0.582" stroke-linejoin="round"/>
<path d="M133.278 58.7122C132.432 63.4649 130.972 68.0878 128.936 72.4648C125.753 78.9774 119.38 84.1863 119.38 84.1863C119.38 84.1863 118.367 87.3698 119.671 89.4243C120.462 90.6537 121.559 91.6564 122.854 92.3343C122.854 92.3343 126.183 102.321 127.51 104.783C128.837 107.245 138.225 116.796 140.681 117.808C143.137 118.821 147.921 118.681 149.946 117.523C151.972 116.365 159.596 107.495 160.632 104.888C161.668 102.281 164.124 91.7174 164.124 91.7174C164.124 91.7174 166.01 91.1354 167.168 88.2254C167.904 86.2243 168.343 84.1263 168.471 81.998C168.471 81.998 164.56 81.2763 158.624 79.67C152.688 78.0637 151.535 77.0684 151.535 77.0684C151.535 77.0684 146.757 77.2139 140.821 72.8664C134.884 68.5189 133.278 58.7122 133.278 58.7122Z" fill="white" stroke="#263238" stroke-width="0.582" stroke-linejoin="round"/>
<path d="M138.9 61.0286C138.9 61.0286 139.482 68.8448 143.242 71.8829C147.001 74.9209 149.324 74.3447 149.324 74.3447C149.324 74.3447 141.938 67.8321 138.9 61.0286Z" fill="white" stroke="#263238" stroke-width="0.582" stroke-linejoin="round"/>
<path d="M130.368 88.2429C131.632 88.922 133.04 89.2896 134.474 89.3149C135.908 89.3402 137.328 89.0225 138.615 88.3884" stroke="#263238" stroke-width="1.164" stroke-linejoin="round"/>
<path d="M149.469 88.2429C150.733 88.922 152.141 89.2896 153.575 89.3149C155.01 89.3402 156.429 89.0225 157.716 88.3884" stroke="#263238" stroke-width="1.164" stroke-linejoin="round"/>
<path d="M138.609 81.7302C138.609 81.7302 134.267 79.5535 129.489 83.4762" stroke="#263238" stroke-width="0.582" stroke-linejoin="round"/>
<path d="M149.609 81.7302C149.609 81.7302 153.951 79.5535 158.729 83.4762" stroke="#263238" stroke-width="0.582" stroke-linejoin="round"/>
<path d="M140.634 99.9644C140.634 99.9644 141.938 101.71 143.678 101.85C145.418 101.99 147.17 101.559 148.02 100.401" stroke="#263238" stroke-width="0.582" stroke-linejoin="round"/>
<path d="M137.742 105.179C137.742 105.179 141.234 107.507 144.545 107.205C147.857 106.902 151.058 104.597 151.058 104.597" stroke="#263238" stroke-width="0.582" stroke-linejoin="round"/>
<path d="M200.668 201.721C200.668 201.721 197.6 196.838 196.204 195.023C194.807 193.207 191.74 192.374 187.829 188.184C183.918 183.994 182.387 188.044 183.644 190.838C184.901 193.632 188.248 195.861 189.784 196.838C191.321 197.816 192.578 200.464 192.578 201.721C192.578 202.978 191.74 205.906 191.74 205.906C190.446 204.266 189.067 202.697 187.608 201.203C184.203 197.537 181.694 194.603 180.996 197.676C180.298 200.749 181.578 202.28 183.906 204.375C186.234 206.47 188.789 209.119 189.068 209.677C189.348 210.236 190.186 214.56 191.443 215.398C192.7 216.236 194.231 216.789 194.231 217.488C194.231 218.186 193.119 220.7 195.767 223.767C198.415 226.835 201.628 226.421 203.333 221.952C205.038 217.482 204.864 209.398 203.193 205.487C201.523 201.576 200.668 201.721 200.668 201.721Z" fill="white" stroke="#263238" stroke-width="0.582" stroke-linejoin="round"/>
<path d="M199.411 200.464C199.411 200.464 195.785 204.096 191.74 205.906C187.695 207.716 185.041 208.56 184.756 210.096C184.471 211.633 184.896 213.006 188.103 212.744C191.309 212.482 201.081 208.67 202.757 206.604C204.433 204.538 203.461 198.235 199.411 200.464Z" fill="white" stroke="#263238" stroke-width="0.582" stroke-linejoin="round"/>
<path d="M204.335 213.955C204.335 213.955 204.992 215.538 202.065 218.186C199.137 220.834 193.41 223.767 191.042 224.326C188.673 224.885 186.717 223.744 188.248 222.231C189.779 220.718 194.248 217.488 194.248 217.488C197.719 216.645 201.097 215.462 204.335 213.955Z" fill="white" stroke="#263238" stroke-width="0.582" stroke-linejoin="round"/>
<path d="M202.763 206.61C202.763 206.61 205.132 205.632 205.83 210.515C206.529 215.398 196.623 217.912 192.718 218.192C188.812 218.471 186.159 216.935 186.717 215.683C187.276 214.432 187.829 214.287 192.578 212.331C197.327 210.376 202.763 206.61 202.763 206.61Z" fill="white" stroke="#263238" stroke-width="0.582" stroke-linejoin="round"/>
<path d="M80.6594 161.796C80.6594 161.796 74.2108 164.177 76.3118 170.346C78.4128 176.515 79.2567 178.203 79.961 181.986C80.6652 185.769 78.1393 188.58 75.7531 202.46C73.3669 216.341 81.6429 219.286 85.8508 221.812C90.0587 224.338 96.3675 210.172 97.0659 205.964C97.7643 201.756 92.7184 189.278 91.7407 182.55C90.7629 175.822 89.3545 172.028 92.5787 167.418C95.803 162.809 90.4777 161.249 88.7957 160.271C87.1138 159.294 80.6594 161.796 80.6594 161.796Z" fill="white" stroke="#263238" stroke-width="0.582" stroke-linejoin="round"/>
<path d="M84.7275 181.444C89.3544 181.444 92.439 176.957 92.439 176.957C93.9263 176.475 95.2569 175.603 96.2919 174.431C97.7643 172.61 97.7702 169.246 97.7702 169.246C97.7702 169.246 101.297 164.188 103.939 162.652C106.582 161.115 108.427 160.126 109.27 157.466C110.114 154.806 108.846 153.392 105.482 156.203C102.118 159.014 100.575 159.567 100.575 159.567L88.9354 161.953" fill="white"/>
<path d="M84.7275 181.444C89.3544 181.444 92.439 176.957 92.439 176.957C93.9263 176.475 95.2569 175.603 96.2919 174.431C97.7643 172.61 97.7702 169.246 97.7702 169.246C97.7702 169.246 101.297 164.188 103.939 162.652C106.582 161.115 108.427 160.126 109.27 157.466C110.114 154.806 108.846 153.392 105.482 156.203C102.118 159.014 100.575 159.567 100.575 159.567L88.9354 161.953" stroke="#263238" stroke-width="0.582" stroke-linejoin="round"/>
<path d="M103.023 159.984L86.8076 167.377L99.9446 196.19L116.16 188.797L103.023 159.984Z" fill="white" stroke="#263238" stroke-width="0.582" stroke-linejoin="round"/>
<path d="M96.2163 165.684L107.216 189.802" stroke="#263238" stroke-width="0.582" stroke-linejoin="round"/>
<path d="M92.666 174.018C92.9836 174.161 93.3446 174.173 93.6713 174.052C93.9979 173.932 94.264 173.687 94.412 173.372L96.0707 169.81C96.2102 169.491 96.2202 169.131 96.0985 168.805C95.9769 168.479 95.7331 168.213 95.4188 168.064C95.1009 167.924 94.741 167.913 94.4152 168.034C94.0893 168.154 93.8232 168.397 93.6728 168.71L92.02 172.272C91.8785 172.59 91.8669 172.95 91.9876 173.276C92.1083 173.603 92.3518 173.869 92.666 174.018Z" fill="#263238" stroke="#263238" stroke-width="0.582" stroke-linejoin="round"/>
<path d="M95.2851 179.762C95.6029 179.904 95.9634 179.915 96.2896 179.795C96.6158 179.674 96.882 179.431 97.0311 179.116L98.684 175.555C98.827 175.237 98.8394 174.876 98.7186 174.549C98.5977 174.223 98.3533 173.957 98.038 173.809C97.7202 173.667 97.3597 173.655 97.0335 173.776C96.7073 173.897 96.4412 174.14 96.292 174.455L94.6391 178.016C94.4977 178.334 94.486 178.695 94.6067 179.021C94.7274 179.347 94.9709 179.613 95.2851 179.762Z" fill="#263238" stroke="#263238" stroke-width="0.582" stroke-linejoin="round"/>
<path d="M97.9038 185.501C98.2214 185.644 98.5824 185.656 98.9091 185.535C99.2357 185.415 99.5018 185.17 99.6498 184.855L101.303 181.293C101.446 180.975 101.458 180.614 101.337 180.288C101.216 179.961 100.972 179.695 100.657 179.547C100.339 179.406 99.9784 179.394 99.6522 179.515C99.3259 179.635 99.0598 179.879 98.9106 180.193L97.2578 183.755C97.1163 184.073 97.1047 184.433 97.2254 184.759C97.3461 185.086 97.5896 185.352 97.9038 185.501Z" fill="#263238" stroke="#263238" stroke-width="0.582" stroke-linejoin="round"/>
<path d="M100.523 191.245C100.841 191.387 101.201 191.398 101.527 191.278C101.854 191.157 102.12 190.914 102.269 190.599L103.922 187.037C104.063 186.72 104.075 186.359 103.954 186.033C103.833 185.707 103.59 185.441 103.276 185.291C102.958 185.15 102.597 185.138 102.271 185.259C101.945 185.38 101.679 185.623 101.53 185.937L99.8768 189.499C99.7338 189.817 99.7214 190.178 99.8422 190.505C99.9631 190.831 100.208 191.097 100.523 191.245Z" fill="#263238" stroke="#263238" stroke-width="0.582" stroke-linejoin="round"/>
<path d="M100.203 170.584C100.521 170.726 100.881 170.737 101.208 170.617C101.534 170.496 101.8 170.252 101.949 169.938L103.602 166.376C103.743 166.059 103.755 165.698 103.634 165.372C103.514 165.046 103.27 164.779 102.956 164.63C102.638 164.489 102.278 164.477 101.951 164.598C101.625 164.719 101.359 164.962 101.21 165.276L99.5512 168.838C99.4101 169.157 99.3994 169.518 99.5212 169.844C99.643 170.17 99.8878 170.436 100.203 170.584Z" fill="#263238" stroke="#263238" stroke-width="0.582" stroke-linejoin="round"/>
<path d="M102.816 176.346C103.135 176.487 103.496 176.498 103.822 176.376C104.149 176.254 104.414 176.01 104.562 175.694L106.221 172.138C106.362 171.82 106.374 171.46 106.253 171.134C106.133 170.808 105.889 170.541 105.575 170.392C105.416 170.318 105.244 170.275 105.069 170.267C104.893 170.26 104.718 170.286 104.553 170.346C104.388 170.406 104.237 170.499 104.108 170.617C103.978 170.736 103.874 170.879 103.8 171.038L102.147 174.6C102.009 174.921 102.001 175.283 102.126 175.609C102.251 175.936 102.499 176.2 102.816 176.346Z" fill="#263238" stroke="#263238" stroke-width="0.582" stroke-linejoin="round"/>
<path d="M105.435 182.067C105.753 182.208 106.113 182.22 106.44 182.099C106.766 181.979 107.032 181.735 107.181 181.421L108.84 177.859C108.981 177.541 108.992 177.18 108.87 176.853C108.748 176.527 108.503 176.261 108.188 176.113C107.87 175.973 107.51 175.962 107.184 176.083C106.858 176.203 106.592 176.446 106.442 176.759L104.789 180.321C104.648 180.639 104.636 180.999 104.757 181.326C104.877 181.652 105.121 181.918 105.435 182.067Z" fill="#263238" stroke="#263238" stroke-width="0.582" stroke-linejoin="round"/>
<path d="M108.054 187.811C108.372 187.953 108.732 187.964 109.059 187.844C109.385 187.723 109.651 187.48 109.8 187.165L111.453 183.603C111.596 183.286 111.608 182.925 111.488 182.598C111.367 182.272 111.122 182.006 110.807 181.857C110.489 181.714 110.128 181.702 109.802 181.823C109.475 181.944 109.209 182.188 109.061 182.504L107.408 186.065C107.267 186.383 107.255 186.744 107.376 187.07C107.496 187.396 107.74 187.662 108.054 187.811Z" fill="#263238" stroke="#263238" stroke-width="0.582" stroke-linejoin="round"/>
<path d="M90.0586 156.901C90.0586 156.901 93.8416 152.979 95.8029 153.677C97.7643 154.375 102.787 159.567 102.956 160.83C103.124 162.093 104.923 166.161 104.219 166.44C103.514 166.72 98.8933 163.775 96.9262 161.784C94.959 159.794 90.0586 156.901 90.0586 156.901Z" fill="white" stroke="#263238" stroke-width="0.582" stroke-linejoin="round"/>
<path d="M82.4868 162.378C82.4868 162.378 85.5714 155.644 87.6724 155.644C89.7735 155.644 97.3511 159.014 98.3289 160.417C99.3066 161.819 103.8 166.167 102.676 166.726C101.553 167.284 99.1844 166.144 97.4908 164.904C96.6353 164.248 95.7455 163.638 94.8252 163.076L90.0586 161.674" fill="white"/>
<path d="M82.4868 162.378C82.4868 162.378 85.5714 155.644 87.6724 155.644C89.7735 155.644 97.3511 159.014 98.3289 160.417C99.3066 161.819 103.8 166.167 102.676 166.726C101.553 167.284 99.1844 166.144 97.4908 164.904C96.6353 164.248 95.7455 163.638 94.8252 163.076L90.0586 161.674" stroke="#263238" stroke-width="0.582" stroke-linejoin="round"/>
<path d="M77.5747 164.898C77.5747 164.898 80.6593 158.164 82.7662 158.164C84.873 158.164 92.439 161.528 93.4226 162.931C94.4062 164.334 98.8934 168.681 97.7701 169.246C96.6469 169.81 94.2781 168.664 92.5787 167.418C91.7249 166.764 90.8371 166.156 89.9189 165.596L85.1465 164.194" fill="white"/>
<path d="M77.5747 164.898C77.5747 164.898 80.6593 158.164 82.7662 158.164C84.873 158.164 92.439 161.528 93.4226 162.931C94.4062 164.334 98.8934 168.681 97.7701 169.246C96.6469 169.81 94.2781 168.664 92.5787 167.418C91.7249 166.764 90.8371 166.156 89.9189 165.596L85.1465 164.194" stroke="#263238" stroke-width="0.582" stroke-linejoin="round"/>
<path d="M76.3119 167.983C76.3119 167.983 74.7696 164.613 76.3119 163.909C77.8542 163.205 87.8123 160.824 88.7958 160.265C89.7794 159.707 91.6011 160.545 89.3778 163.065C87.1546 165.585 80.5431 167.139 79.8447 167.273" fill="white"/>
<path d="M76.3119 167.983C76.3119 167.983 74.7696 164.613 76.3119 163.909C77.8542 163.205 87.8123 160.824 88.7958 160.265C89.7794 159.707 91.6011 160.545 89.3778 163.065C87.1546 165.585 80.5431 167.139 79.8447 167.273" stroke="#263238" stroke-width="0.582" stroke-linejoin="round"/>
<path d="M57.0886 119.38L49.2025 124.792C49.2025 124.792 45.0528 127.184 42.9052 131.037L34.2276 154.317C34.2276 154.317 33.2149 155.557 32.1266 155.242C31.4269 155.04 30.7407 154.793 30.0721 154.503C29.4782 154.195 28.8272 154.011 28.1595 153.964C27.4918 153.917 26.8216 154.008 26.1902 154.23C24.2754 155.027 22.6284 156.68 22.2093 159.718C21.7903 162.756 22.7913 165.131 24.805 165.986C26.8188 166.842 28.687 166.708 30.3981 165.352C32.1091 163.996 33.5059 160.975 33.8901 159.951C34.1578 159.212 34.5419 158.106 34.7281 157.547L41.7645 139.884L43.0391 139.464C43.0391 139.464 47.2528 131.532 49.121 130.129C50.9892 128.727 56.4135 124.583 57.269 123.145C58.1245 121.708 57.0886 119.38 57.0886 119.38ZM30.1653 164.432C29.3272 165.247 27.3717 165.87 25.131 164.927C22.8903 163.984 22.5702 161.284 22.8844 159.567C23.1987 157.85 25.0669 155.021 26.9177 155.074C28.7685 155.126 30.8287 155.807 31.7192 157.483C32.6097 159.159 31.8705 161.557 31.8705 161.557C31.3002 162.96 31.0033 163.612 30.1653 164.432Z" fill="white" stroke="black" stroke-width="0.582" stroke-linejoin="round"/>
<path d="M48.8884 159.253C47.3694 157.902 44.3663 158.135 44.3663 158.135C44.1732 158.124 43.9844 158.074 43.8114 157.988C43.6383 157.902 43.4847 157.781 43.3599 157.634C43.2352 157.486 43.1418 157.315 43.0857 157.13C43.0296 156.945 43.0118 156.75 43.0335 156.558C43.1557 155.115 46.9213 132.76 46.9213 132.76L47.5033 129.85L54.9121 115.818L55.9132 113.199C55.9132 113.199 55.4825 112.815 55.2439 112.844L53.4571 114.776C53.4571 114.776 43.5922 127.388 43.3652 128.337C43.1383 129.285 42.9055 131.037 42.9055 131.037L41.7822 138.603C41.7822 138.603 43.761 140.116 43.8017 141.106C43.8425 142.002 40.8917 160.55 40.3097 164.258C40.2582 164.468 40.2232 164.682 40.205 164.898C40.0944 166.807 41.0896 170.084 43.9181 170.02C46.7467 169.956 48.7313 168.431 49.9011 165.818C51.0709 163.204 50.4016 160.632 48.8884 159.253ZM49.0805 165.655C48.1376 167.761 46.5313 168.984 44.2382 169.036C41.9452 169.088 41.1304 166.434 41.2177 164.898C41.2708 164.044 41.4944 163.21 41.8752 162.444C42.2561 161.679 42.7864 160.997 43.4351 160.44C44.0714 159.852 44.8973 159.511 45.7631 159.48C46.6634 159.518 47.5314 159.826 48.254 160.364C49.4704 161.464 50.0524 163.542 49.0747 165.666L49.0805 165.655Z" fill="white" stroke="black" stroke-width="0.582" stroke-linejoin="round"/>
<path d="M44.5347 128.418L47.5203 129.838" stroke="black" stroke-width="0.582" stroke-linejoin="round"/>
<path d="M46.0595 133.72C45.9743 133.901 45.8386 134.053 45.6687 134.157C45.4988 134.262 45.3022 134.315 45.1026 134.31C44.9031 134.306 44.7092 134.243 44.5447 134.13C44.3801 134.017 44.252 133.859 44.1757 133.674C44.0995 133.49 44.0785 133.287 44.1153 133.091C44.1521 132.895 44.2451 132.713 44.383 132.569C44.5209 132.425 44.6977 132.324 44.892 132.278C45.0863 132.232 45.2897 132.244 45.4775 132.312C45.6083 132.366 45.7271 132.445 45.8271 132.545C45.9272 132.646 46.0065 132.764 46.0605 132.895C46.1146 133.026 46.1423 133.166 46.1421 133.308C46.142 133.449 46.1139 133.589 46.0595 133.72Z" fill="white" stroke="black" stroke-width="0.582" stroke-linejoin="round"/>
<path d="M46.0597 133.72L44.1333 133.028" stroke="black" stroke-width="0.582" stroke-linejoin="round"/>
<path d="M48.5156 127.633C48.4705 127.291 48.3315 126.969 48.1141 126.701C47.7474 126.23 47.2061 125.834 47.5728 125.083C47.9395 124.333 53.7711 115.102 53.7711 115.102L54.4579 115.643" fill="white"/>
<path d="M48.5156 127.633C48.4705 127.291 48.3315 126.969 48.1141 126.701C47.7474 126.23 47.2061 125.834 47.5728 125.083C47.9395 124.333 53.7711 115.102 53.7711 115.102L54.4579 115.643" stroke="black" stroke-width="0.582" stroke-linejoin="round"/>
<path d="M98.562 34.7512C96.6531 30.0952 93.3706 26.9932 91.2288 27.8662C90.9167 27.9931 90.6394 28.1926 90.4198 28.4482L55.1855 53.7826L62.0997 70.7188L98.143 44.814C100.285 43.9294 100.471 39.4305 98.562 34.7512Z" fill="white" stroke="black" stroke-width="0.582" stroke-linejoin="round"/>
<path d="M95.8437 36.666C93.9347 32.01 90.6465 28.9021 88.5047 29.7751C88.1899 29.9136 87.9125 30.1251 87.6957 30.3921L52.4614 55.7149L59.3639 72.6569L95.4479 46.7404C97.5606 45.8674 97.7759 41.3628 95.8437 36.666Z" fill="white" stroke="black" stroke-width="0.582" stroke-linejoin="round"/>
<path d="M62.8097 61.2381C60.2605 54.9874 55.8723 50.8668 53.0088 52.0366C52.5849 52.215 52.2126 52.4972 51.9263 52.8573L41.3223 60.3883L50.5644 83.0281L62.2743 74.6764C65.1144 73.5066 65.3647 67.512 62.8097 61.2381Z" fill="white" stroke="black" stroke-width="0.582" stroke-linejoin="round"/>
<path d="M51.1172 69.5899C53.6664 75.8464 53.4452 81.8584 50.5352 83.0282C47.6252 84.1981 43.301 80.0775 40.7402 73.8268C38.1794 67.5761 38.4122 61.5583 41.3222 60.3884C44.2322 59.2186 48.5623 63.3392 51.1172 69.5899Z" fill="white" stroke="black" stroke-width="0.582" stroke-linejoin="round"/>
<path d="M49.9622 81.5666C52.4559 80.5484 52.675 75.3084 50.4516 69.8627C48.2281 64.4169 44.404 60.8277 41.9103 61.8459C39.4166 62.8641 39.1975 68.1041 41.421 73.5498C43.6444 78.9956 47.4685 82.5848 49.9622 81.5666Z" fill="white" stroke="black" stroke-width="0.582" stroke-linejoin="round"/>
<path d="M67.1984 56.4138L65.2466 53.7026L61.5199 56.3855L63.4716 59.0967L67.1984 56.4138Z" fill="white" stroke="black" stroke-width="0.582" stroke-linejoin="round"/>
<path d="M251.617 61.628L245.483 41.7766L210.207 52.6763L216.34 72.5277L251.617 61.628Z" fill="white" stroke="black" stroke-width="0.582" stroke-linejoin="round"/>
<path d="M246.04 52.9038L216.516 62.0296" stroke="black" stroke-width="0.582" stroke-linejoin="round"/>
<path d="M243.32 51.8552L243.556 51.4812C243.949 50.8586 243.762 50.0356 243.14 49.6428L238.897 46.9658C238.275 46.573 237.451 46.7592 237.059 47.3817L236.823 47.7558C236.43 48.3783 236.616 49.2014 237.239 49.5942L241.482 52.2712C242.104 52.664 242.927 52.4778 243.32 51.8552Z" fill="white" stroke="black" stroke-width="0.582" stroke-linejoin="round"/>
<path d="M236.273 54.0135L236.509 53.6395C236.902 53.0171 236.716 52.194 236.093 51.8011L231.851 49.1233C231.228 48.7304 230.405 48.9165 230.012 49.5389L229.776 49.913C229.383 50.5354 229.569 51.3585 230.192 51.7514L234.434 54.4292C235.057 54.8221 235.88 54.636 236.273 54.0135Z" fill="white" stroke="black" stroke-width="0.582" stroke-linejoin="round"/>
<path d="M229.244 56.1866L229.481 55.8126C229.873 55.1901 229.687 54.367 229.065 53.9742L224.822 51.2964C224.2 50.9035 223.377 51.0896 222.984 51.712L222.748 52.0861C222.355 52.7085 222.541 53.5316 223.164 53.9245L227.406 56.6023C228.028 56.9952 228.852 56.8091 229.244 56.1866Z" fill="white" stroke="black" stroke-width="0.582" stroke-linejoin="round"/>
<path d="M222.226 58.3645L222.462 57.9905C222.854 57.3679 222.668 56.5449 222.046 56.1521L217.803 53.475C217.18 53.0823 216.357 53.2685 215.964 53.891L215.728 54.2651C215.336 54.8876 215.522 55.7107 216.144 56.1035L220.387 58.7805C221.01 59.1733 221.833 58.9871 222.226 58.3645Z" fill="white" stroke="black" stroke-width="0.582" stroke-linejoin="round"/>
<path d="M246.17 61.0819L246.406 60.7079C246.799 60.0854 246.613 59.2623 245.991 58.8694L241.748 56.1916C241.126 55.7987 240.303 55.9848 239.91 56.6073L239.674 56.9813C239.281 57.6038 239.467 58.4269 240.089 58.8198L244.332 61.4976C244.954 61.8904 245.777 61.7043 246.17 61.0819Z" fill="white" stroke="black" stroke-width="0.582" stroke-linejoin="round"/>
<path d="M239.124 63.2374L239.36 62.8634C239.753 62.2409 239.567 61.4178 238.945 61.0249L234.702 58.3471C234.08 57.9543 233.257 58.1404 232.864 58.7628L232.628 59.1368C232.235 59.7593 232.421 60.5824 233.043 60.9753L237.286 63.6531C237.908 64.046 238.731 63.8599 239.124 63.2374Z" fill="white" stroke="black" stroke-width="0.582" stroke-linejoin="round"/>
<path d="M232.091 65.4073L232.327 65.0333C232.72 64.4108 232.534 63.5878 231.912 63.1949L227.669 60.5171C227.047 60.1242 226.224 60.3103 225.831 60.9327L225.595 61.3068C225.202 61.9292 225.388 62.7523 226.01 63.1452L230.253 65.823C230.875 66.2159 231.698 66.0298 232.091 65.4073Z" fill="white" stroke="black" stroke-width="0.582" stroke-linejoin="round"/>
<path d="M225.062 67.5804L225.298 67.2064C225.691 66.5839 225.505 65.7608 224.883 65.368L220.64 62.6902C220.018 62.2973 219.195 62.4834 218.802 63.1058L218.566 63.4799C218.173 64.1023 218.359 64.9254 218.981 65.3183L223.224 67.9961C223.846 68.389 224.669 68.2029 225.062 67.5804Z" fill="white" stroke="black" stroke-width="0.582" stroke-linejoin="round"/>
<path d="M231.718 117.564L227.987 120.986L223.25 114.311L225.484 112.262L231.718 117.564Z" fill="white" stroke="black" stroke-width="0.582" stroke-linejoin="round"/>
<path d="M229.89 117.36L228.226 118.891C227.842 119.245 227.532 119.672 227.314 120.146C227.095 120.62 226.973 121.133 226.953 121.654C226.933 122.176 227.016 122.697 227.197 123.186C227.379 123.676 227.655 124.125 228.01 124.507L254.061 152.6L256.883 157.675L267.854 146.664L262.779 143.847L235.308 117.401C234.579 116.709 233.613 116.32 232.607 116.312C231.601 116.305 230.63 116.679 229.89 117.36Z" fill="white" stroke="black" stroke-width="0.582" stroke-linejoin="round"/>
<path d="M249.923 148.16L255.074 142.119L235.396 122.988L230.647 127.377L249.923 148.16Z" fill="white" stroke="black" stroke-width="0.582" stroke-linejoin="round"/>
<path d="M248.607 228.877H234.377V256.953H248.607V228.877Z" fill="white" stroke="#263238" stroke-width="0.582" stroke-linejoin="round"/>
<path d="M245.971 237.508H237.008V248.322H245.971V237.508Z" fill="white" stroke="#263238" stroke-width="0.582" stroke-linejoin="round"/>
<path d="M245.441 221.562H237.538V228.772H245.441V221.562Z" fill="white" stroke="#263238" stroke-width="0.582" stroke-linejoin="round"/>
<path d="M242.741 210.148H240.238L239.406 221.608H243.579L242.741 210.148Z" fill="white" stroke="#263238" stroke-width="0.582" stroke-linejoin="round"/>
<path d="M245.441 225.036H237.538V228.772H245.441V225.036Z" fill="white" stroke="#263238" stroke-width="0.582" stroke-linejoin="round"/>
<path d="M224.722 237.747H203.508V256.953H224.722V237.747Z" fill="white" stroke="#263238" stroke-width="0.582" stroke-linejoin="round"/>
<path d="M224.722 245.686H203.508V256.953H224.722V245.686Z" fill="white" stroke="#263238" stroke-width="0.582" stroke-linejoin="round"/>
<path d="M220.659 247.705H203.508V254.939H220.659V247.705Z" fill="white" stroke="#263238" stroke-width="0.582" stroke-linejoin="round"/>
<path d="M73.6407 223.791H52.4268V256.953H73.6407V223.791Z" fill="white" stroke="#263238" stroke-width="0.582" stroke-linejoin="round"/>
<path d="M62.9028 224.111V256.778" stroke="#263238" stroke-width="0.582" stroke-linejoin="round"/>
<path d="M59.6492 226.91H54.0562V235.757H59.6492V226.91Z" stroke="#263238" stroke-width="0.582" stroke-linejoin="round"/>
<path d="M58.6891 228.435H55.0225V234.232H58.6891V228.435Z" stroke="#263238" stroke-width="0.582" stroke-linejoin="round"/>
<path d="M71.5627 226.91H65.9697V235.757H71.5627V226.91Z" stroke="#263238" stroke-width="0.582" stroke-linejoin="round"/>
<path d="M70.6026 228.435H66.936V234.232H70.6026V228.435Z" stroke="#263238" stroke-width="0.582" stroke-linejoin="round"/>
<path d="M65.9815 229.122H59.6377V233.196H65.9815V229.122Z" stroke="#263238" stroke-width="0.582" stroke-linejoin="round"/>
<path d="M59.6492 241.984H54.0562V250.83H59.6492V241.984Z" stroke="#263238" stroke-width="0.582" stroke-linejoin="round"/>
<path d="M58.6891 243.509H55.0225V249.306H58.6891V243.509Z" stroke="#263238" stroke-width="0.582" stroke-linejoin="round"/>
<path d="M71.5627 241.984H65.9697V250.83H71.5627V241.984Z" stroke="#263238" stroke-width="0.582" stroke-linejoin="round"/>
<path d="M70.6026 243.509H66.936V249.306H70.6026V243.509Z" stroke="#263238" stroke-width="0.582" stroke-linejoin="round"/>
<path d="M65.9815 244.196H59.6377V248.27H65.9815V244.196Z" stroke="#263238" stroke-width="0.582" stroke-linejoin="round"/>
<path d="M184.284 183.836H101.023V256.959H184.284V183.836Z" fill="#263238" stroke="#263238" stroke-width="0.582" stroke-linejoin="round"/>
<path d="M184.284 206.063H101.023V256.953H184.284V206.063Z" fill="#0F2ABF" stroke="#263238" stroke-width="0.582" stroke-linejoin="round"/>
<path d="M156.22 226.084H148.16V218.145H137.148V226.084H129.087V236.932H137.148V244.877H148.16V236.932H156.22V226.084Z" fill="white" stroke="#263238" stroke-width="0.582" stroke-linejoin="round"/>
<path d="M184.162 179.937H101.187V187.299H184.162V179.937Z" fill="#0F2ABF" stroke="#263238" stroke-width="0.582" stroke-linejoin="round"/>
<path d="M24.083 256.953H267.417" stroke="#263238" stroke-width="0.582" stroke-linejoin="round"/>
</svg>
