<svg width="33" height="33" viewBox="0 0 33 33" fill="none" xmlns="http://www.w3.org/2000/svg">
<g clip-path="url(#clip0_559_4606)">
<path d="M32.2677 16.814C32.2677 15.503 32.1613 14.5463 31.9311 13.5542H16.9604V19.4715H25.7479C25.5708 20.942 24.6141 23.1566 22.488 24.6448L22.4582 24.8429L27.1917 28.5098L27.5196 28.5425C30.5314 25.761 32.2677 21.6684 32.2677 16.814Z" fill="#4285F4"/>
<path d="M16.9606 32.4047C21.2657 32.4047 24.8799 30.9873 27.5197 28.5425L22.4882 24.6447C21.1417 25.5837 19.3346 26.2392 16.9606 26.2392C12.744 26.2392 9.16529 23.4578 7.88956 19.6133L7.70257 19.6292L2.78067 23.4383L2.71631 23.6172C5.33835 28.8259 10.7242 32.4047 16.9606 32.4047Z" fill="#34A853"/>
<path d="M7.88915 19.6134C7.55254 18.6213 7.35773 17.5582 7.35773 16.4598C7.35773 15.3613 7.55254 14.2983 7.87144 13.3062L7.86253 13.0949L2.87895 9.22461L2.7159 9.30217C1.63523 11.4636 1.01514 13.8909 1.01514 16.4598C1.01514 19.0287 1.63523 21.4558 2.7159 23.6173L7.88915 19.6134Z" fill="#FBBC05"/>
<path d="M16.9606 6.68002C19.9547 6.68002 21.9743 7.97334 23.126 9.05413L27.626 4.66036C24.8623 2.09144 21.2657 0.514648 16.9606 0.514648C10.7242 0.514648 5.33835 4.0934 2.71631 9.30207L7.87185 13.3061C9.16529 9.46158 12.744 6.68002 16.9606 6.68002Z" fill="#EB4335"/>
</g>
<defs>
<clipPath id="clip0_559_4606">
<rect width="32" height="32" fill="white" transform="translate(0.648926 0.514648)"/>
</clipPath>
</defs>
</svg>
