<svg width="261" height="184" viewBox="0 0 261 184" fill="none" xmlns="http://www.w3.org/2000/svg">
<g filter="url(#filter0_d_565_5725)">
<g filter="url(#filter1_d_565_5725)">
<path d="M76.1349 66.1034C74.8218 66.1034 73.6824 65.8813 72.7169 65.4372C71.7707 64.9737 70.979 64.3654 70.3418 63.6123C69.7238 62.8399 69.2604 61.9806 68.9514 61.0344C68.6424 60.0882 68.488 59.1227 68.488 58.1379C68.488 57.153 68.6328 56.1972 68.9224 55.2703C69.2314 54.3241 69.6852 53.4648 70.2838 52.6923C70.9018 51.9199 71.6838 51.3116 72.63 50.8675C73.5762 50.4041 74.6962 50.1723 75.99 50.1723C77.3804 50.1723 78.6066 50.4813 79.6687 51.0992C80.7307 51.7172 81.5611 52.6248 82.1597 53.822C82.7583 54.9999 83.0576 56.4675 83.0576 58.2248V59.2096H72.3693C72.4273 60.2523 72.7845 61.1599 73.4411 61.9323C74.0976 62.6854 74.9956 63.062 76.1349 63.062C76.7914 63.062 77.3321 62.9558 77.7569 62.7434C78.1818 62.531 78.51 62.2896 78.7418 62.0192C78.9735 61.7296 79.1376 61.4882 79.2342 61.2951C79.3307 61.0827 79.379 60.9765 79.379 60.9765H82.9418C82.9418 60.9765 82.8935 61.1503 82.7969 61.4979C82.7004 61.8261 82.5169 62.251 82.2466 62.7723C81.9956 63.2744 81.619 63.7861 81.1169 64.3075C80.6149 64.8096 79.9583 65.2344 79.1473 65.582C78.3362 65.9296 77.3321 66.1034 76.1349 66.1034ZM72.3693 56.6896H79.35C79.2921 55.4923 78.9349 54.6041 78.2783 54.0248C77.6218 53.4454 76.8493 53.1558 75.9611 53.1558C74.9762 53.1558 74.1556 53.4744 73.499 54.1116C72.8424 54.7296 72.4659 55.5889 72.3693 56.6896ZM92.8609 66.1034C91.7216 66.1034 90.7271 65.8813 89.8774 65.4372C89.0278 64.9737 88.3133 64.3654 87.734 63.6123C87.174 62.8399 86.7491 61.9806 86.4595 61.0344C86.1891 60.0882 86.054 59.1227 86.054 58.1379C86.054 57.153 86.1891 56.1875 86.4595 55.2413C86.7491 54.2951 87.174 53.4454 87.734 52.6923C88.3133 51.9199 89.0278 51.3116 89.8774 50.8675C90.7271 50.4041 91.7216 50.1723 92.8609 50.1723C93.8457 50.1723 94.6567 50.3365 95.294 50.6648C95.9312 50.9737 96.4333 51.3213 96.8002 51.7075C97.1671 52.0744 97.4181 52.3737 97.5533 52.6054H97.7271V43.7999H101.579V65.8137H97.7271V63.6703H97.5533C97.4181 63.902 97.1671 64.211 96.8002 64.5972C96.4333 64.9834 95.9312 65.331 95.294 65.6399C94.6567 65.9489 93.8457 66.1034 92.8609 66.1034ZM93.8747 62.9461C94.7436 62.9461 95.4678 62.7144 96.0471 62.251C96.6264 61.7682 97.0609 61.1599 97.3505 60.4261C97.6402 59.6923 97.785 58.9296 97.785 58.1379C97.785 57.3461 97.6402 56.5834 97.3505 55.8496C97.0609 55.1158 96.6264 54.5172 96.0471 54.0537C95.4678 53.571 94.7436 53.3296 93.8747 53.3296C93.0057 53.3296 92.2719 53.571 91.6733 54.0537C91.094 54.5172 90.6595 55.1158 90.3698 55.8496C90.0802 56.5834 89.9354 57.3461 89.9354 58.1379C89.9354 58.9296 90.0802 59.6923 90.3698 60.4261C90.6595 61.1599 91.094 61.7682 91.6733 62.251C92.2719 62.7144 93.0057 62.9461 93.8747 62.9461ZM110.33 66.1034C108.727 66.1034 107.511 65.611 106.681 64.6261C105.87 63.6413 105.464 62.3765 105.464 60.8317V50.462H109.287V60.1944C109.287 61.0248 109.51 61.691 109.954 62.193C110.398 62.6758 111.025 62.9172 111.836 62.9172C112.551 62.9172 113.13 62.7337 113.574 62.3668C114.019 61.9999 114.337 61.5268 114.53 60.9475C114.743 60.3682 114.849 59.7696 114.849 59.1517V50.462H118.701V65.8137H114.849V63.6123H114.675C114.482 63.9599 114.202 64.3268 113.835 64.713C113.487 65.0992 113.024 65.4275 112.445 65.6979C111.885 65.9682 111.18 66.1034 110.33 66.1034ZM129.913 66.1034C128.599 66.1034 127.45 65.8813 126.466 65.4372C125.481 64.9737 124.66 64.3654 124.004 63.6123C123.347 62.8399 122.855 61.9806 122.526 61.0344C122.217 60.0882 122.063 59.1227 122.063 58.1379C122.063 57.153 122.217 56.1875 122.526 55.2413C122.855 54.2951 123.337 53.4454 123.975 52.6923C124.631 51.9199 125.452 51.3116 126.437 50.8675C127.421 50.4041 128.58 50.1723 129.913 50.1723C131.226 50.1723 132.317 50.3654 133.186 50.7516C134.055 51.1379 134.74 51.6206 135.242 52.1999C135.764 52.7792 136.15 53.3585 136.401 53.9379C136.652 54.4979 136.816 54.971 136.893 55.3572C136.97 55.7434 137.009 55.9365 137.009 55.9365H133.388C133.388 55.9365 133.35 55.811 133.273 55.5599C133.195 55.2896 133.041 54.9806 132.809 54.633C132.577 54.2854 132.23 53.9765 131.766 53.7061C131.322 53.4358 130.724 53.3006 129.97 53.3006C129.082 53.3006 128.329 53.5323 127.711 53.9958C127.113 54.4399 126.659 55.0289 126.35 55.7627C126.041 56.4965 125.886 57.2882 125.886 58.1379C125.886 58.9875 126.041 59.7792 126.35 60.513C126.659 61.2468 127.113 61.8454 127.711 62.3089C128.329 62.753 129.082 62.9751 129.97 62.9751C130.724 62.9751 131.322 62.8399 131.766 62.5696C132.23 62.2992 132.577 61.9903 132.809 61.6427C133.041 61.2951 133.195 60.9958 133.273 60.7448C133.35 60.4744 133.388 60.3392 133.388 60.3392H137.009C137.009 60.3392 136.97 60.5323 136.893 60.9185C136.816 61.3048 136.652 61.7875 136.401 62.3668C136.15 62.9268 135.764 63.4965 135.242 64.0758C134.74 64.6551 134.055 65.1379 133.186 65.5241C132.317 65.9103 131.226 66.1034 129.913 66.1034Z" fill="#ED0000"/>
</g>
<g filter="url(#filter2_d_565_5725)">
<path d="M71.0273 69.4942H133.249H138.747L141.137 78.331L144.006 58.797M176.993 69.4942H161.216L157.87 55.0762L154.523 71.3546L151.731 58.797M144.006 58.797L146.874 40.1931L151.731 58.797M144.006 58.797H151.731" stroke="#ED0000" stroke-width="2.89655" stroke-linecap="square"/>
</g>
<g filter="url(#filter3_d_565_5725)">
<path d="M170.881 66.1034C169.741 66.1034 168.747 65.8813 167.897 65.4372C167.048 64.9737 166.333 64.3654 165.754 63.6123C165.194 62.8399 164.769 61.9806 164.479 61.0344C164.209 60.0882 164.074 59.1227 164.074 58.1379C164.074 57.153 164.209 56.1875 164.479 55.2413C164.769 54.2951 165.194 53.4454 165.754 52.6923C166.333 51.9199 167.048 51.3116 167.897 50.8675C168.747 50.4041 169.741 50.1723 170.881 50.1723C171.866 50.1723 172.677 50.3365 173.314 50.6648C173.951 50.9737 174.453 51.3213 174.82 51.7075C175.187 52.0744 175.438 52.3737 175.573 52.6054H175.747V43.7999H179.599V65.8137H175.747V63.6703H175.573C175.438 63.902 175.187 64.211 174.82 64.5972C174.453 64.9834 173.951 65.331 173.314 65.6399C172.677 65.9489 171.866 66.1034 170.881 66.1034ZM171.895 62.9461C172.764 62.9461 173.488 62.7144 174.067 62.251C174.646 61.7682 175.081 61.1599 175.37 60.4261C175.66 59.6923 175.805 58.9296 175.805 58.1379C175.805 57.3461 175.66 56.5834 175.37 55.8496C175.081 55.1158 174.646 54.5172 174.067 54.0537C173.488 53.571 172.764 53.3296 171.895 53.3296C171.026 53.3296 170.292 53.571 169.693 54.0537C169.114 54.5172 168.679 55.1158 168.39 55.8496C168.1 56.5834 167.955 57.3461 167.955 58.1379C167.955 58.9296 168.1 59.6923 168.39 60.4261C168.679 61.1599 169.114 61.7682 169.693 62.251C170.292 62.7144 171.026 62.9461 171.895 62.9461Z" fill="#ED0000"/>
</g>
<g filter="url(#filter4_d_565_5725)">
<path d="M159.612 50.8136C159.612 51.8801 158.748 52.7446 157.681 52.7446C156.615 52.7446 155.75 51.8801 155.75 50.8136C155.75 49.7471 156.615 48.8826 157.681 48.8826C158.748 48.8826 159.612 49.7471 159.612 50.8136Z" fill="#ED0000"/>
</g>
</g>
<defs>
<filter id="filter0_d_565_5725" x="-12.4492" y="-17.0476" width="272.986" height="200.757" filterUnits="userSpaceOnUse" color-interpolation-filters="sRGB">
<feFlood flood-opacity="0" result="BackgroundImageFix"/>
<feColorMatrix in="SourceAlpha" type="matrix" values="0 0 0 0 0 0 0 0 0 0 0 0 0 0 0 0 0 0 127 0" result="hardAlpha"/>
<feMorphology radius="4.375" operator="dilate" in="SourceAlpha" result="effect1_dropShadow_565_5725"/>
<feOffset dy="24.0625"/>
<feGaussianBlur stdDeviation="38.2813"/>
<feColorMatrix type="matrix" values="0 0 0 0 0 0 0 0 0 0 0 0 0 0 0 0 0 0 0.56 0"/>
<feBlend mode="normal" in2="BackgroundImageFix" result="effect1_dropShadow_565_5725"/>
<feBlend mode="normal" in="SourceGraphic" in2="effect1_dropShadow_565_5725" result="shape"/>
</filter>
<filter id="filter1_d_565_5725" x="68.4883" y="43.7998" width="69.486" height="23.269" filterUnits="userSpaceOnUse" color-interpolation-filters="sRGB">
<feFlood flood-opacity="0" result="BackgroundImageFix"/>
<feColorMatrix in="SourceAlpha" type="matrix" values="0 0 0 0 0 0 0 0 0 0 0 0 0 0 0 0 0 0 127 0" result="hardAlpha"/>
<feOffset dx="0.965517" dy="0.965517"/>
<feComposite in2="hardAlpha" operator="out"/>
<feColorMatrix type="matrix" values="0 0 0 0 0 0 0 0 0 0 0 0 0 0 0 0 0 0 0.25 0"/>
<feBlend mode="normal" in2="BackgroundImageFix" result="effect1_dropShadow_565_5725"/>
<feBlend mode="normal" in="SourceGraphic" in2="effect1_dropShadow_565_5725" result="shape"/>
</filter>
<filter id="filter2_d_565_5725" x="69.5791" y="39.8274" width="109.828" height="39.8474" filterUnits="userSpaceOnUse" color-interpolation-filters="sRGB">
<feFlood flood-opacity="0" result="BackgroundImageFix"/>
<feColorMatrix in="SourceAlpha" type="matrix" values="0 0 0 0 0 0 0 0 0 0 0 0 0 0 0 0 0 0 127 0" result="hardAlpha"/>
<feOffset dx="0.965517" dy="0.965517"/>
<feColorMatrix type="matrix" values="0 0 0 0 0 0 0 0 0 0 0 0 0 0 0 0 0 0 0.25 0"/>
<feBlend mode="normal" in2="BackgroundImageFix" result="effect1_dropShadow_565_5725"/>
<feBlend mode="normal" in="SourceGraphic" in2="effect1_dropShadow_565_5725" result="shape"/>
</filter>
<filter id="filter3_d_565_5725" x="164.074" y="43.7998" width="16.4909" height="23.269" filterUnits="userSpaceOnUse" color-interpolation-filters="sRGB">
<feFlood flood-opacity="0" result="BackgroundImageFix"/>
<feColorMatrix in="SourceAlpha" type="matrix" values="0 0 0 0 0 0 0 0 0 0 0 0 0 0 0 0 0 0 127 0" result="hardAlpha"/>
<feOffset dx="0.965517" dy="0.965517"/>
<feComposite in2="hardAlpha" operator="out"/>
<feColorMatrix type="matrix" values="0 0 0 0 0 0 0 0 0 0 0 0 0 0 0 0 0 0 0.25 0"/>
<feBlend mode="normal" in2="BackgroundImageFix" result="effect1_dropShadow_565_5725"/>
<feBlend mode="normal" in="SourceGraphic" in2="effect1_dropShadow_565_5725" result="shape"/>
</filter>
<filter id="filter4_d_565_5725" x="155.75" y="48.8826" width="5.14966" height="5.14942" filterUnits="userSpaceOnUse" color-interpolation-filters="sRGB">
<feFlood flood-opacity="0" result="BackgroundImageFix"/>
<feColorMatrix in="SourceAlpha" type="matrix" values="0 0 0 0 0 0 0 0 0 0 0 0 0 0 0 0 0 0 127 0" result="hardAlpha"/>
<feOffset dx="1.28736" dy="1.28736"/>
<feComposite in2="hardAlpha" operator="out"/>
<feColorMatrix type="matrix" values="0 0 0 0 0 0 0 0 0 0 0 0 0 0 0 0 0 0 0.25 0"/>
<feBlend mode="normal" in2="BackgroundImageFix" result="effect1_dropShadow_565_5725"/>
<feBlend mode="normal" in="SourceGraphic" in2="effect1_dropShadow_565_5725" result="shape"/>
</filter>
</defs>
</svg>
