<svg width="407" height="332" viewBox="0 0 407 332" fill="none" xmlns="http://www.w3.org/2000/svg">
<g filter="url(#filter0_d_549_3472)">
<g filter="url(#filter1_ddi_549_3472)">
<path d="M174.899 105.186C183.274 73.0344 221.098 77.3978 231.802 99.5398C243.163 77.3977 280.963 74.1056 289.417 105.186C297.169 133.688 269.981 158.648 231.802 182C196.275 156.804 166.624 136.952 174.899 105.186Z" fill="#ED0000"/>
</g>
<g filter="url(#filter2_d_549_3472)">
<path d="M126.659 135.828C124.783 135.828 123.155 135.51 121.776 134.876C120.424 134.214 119.293 133.345 118.383 132.269C117.5 131.166 116.838 129.938 116.397 128.586C115.955 127.235 115.734 125.855 115.734 124.448C115.734 123.041 115.941 121.676 116.355 120.352C116.797 119 117.445 117.772 118.3 116.669C119.183 115.566 120.3 114.697 121.652 114.062C123.003 113.4 124.603 113.069 126.452 113.069C128.438 113.069 130.19 113.51 131.707 114.393C133.224 115.276 134.41 116.572 135.266 118.283C136.121 119.966 136.548 122.062 136.548 124.572V125.979H121.279C121.362 127.469 121.872 128.766 122.81 129.869C123.748 130.945 125.031 131.483 126.659 131.483C127.597 131.483 128.369 131.331 128.976 131.028C129.583 130.724 130.052 130.379 130.383 129.993C130.714 129.579 130.948 129.235 131.086 128.959C131.224 128.655 131.293 128.503 131.293 128.503H136.383C136.383 128.503 136.314 128.752 136.176 129.248C136.038 129.717 135.776 130.324 135.39 131.069C135.031 131.786 134.493 132.517 133.776 133.262C133.059 133.979 132.121 134.586 130.962 135.083C129.803 135.579 128.369 135.828 126.659 135.828ZM121.279 122.379H131.252C131.169 120.669 130.659 119.4 129.721 118.572C128.783 117.745 127.679 117.331 126.41 117.331C125.003 117.331 123.831 117.786 122.893 118.697C121.955 119.579 121.417 120.807 121.279 122.379ZM150.553 135.828C148.925 135.828 147.505 135.51 146.291 134.876C145.077 134.214 144.056 133.345 143.229 132.269C142.429 131.166 141.822 129.938 141.408 128.586C141.022 127.235 140.829 125.855 140.829 124.448C140.829 123.041 141.022 121.662 141.408 120.31C141.822 118.959 142.429 117.745 143.229 116.669C144.056 115.566 145.077 114.697 146.291 114.062C147.505 113.4 148.925 113.069 150.553 113.069C151.96 113.069 153.118 113.303 154.029 113.772C154.939 114.214 155.656 114.71 156.18 115.262C156.705 115.786 157.063 116.214 157.256 116.545H157.505V103.966H163.008V135.414H157.505V132.352H157.256C157.063 132.683 156.705 133.124 156.18 133.676C155.656 134.228 154.939 134.724 154.029 135.166C153.118 135.607 151.96 135.828 150.553 135.828ZM152.001 131.317C153.243 131.317 154.277 130.986 155.105 130.324C155.932 129.635 156.553 128.766 156.967 127.717C157.38 126.669 157.587 125.579 157.587 124.448C157.587 123.317 157.38 122.228 156.967 121.179C156.553 120.131 155.932 119.276 155.105 118.614C154.277 117.924 153.243 117.579 152.001 117.579C150.76 117.579 149.712 117.924 148.856 118.614C148.029 119.276 147.408 120.131 146.994 121.179C146.58 122.228 146.374 123.317 146.374 124.448C146.374 125.579 146.58 126.669 146.994 127.717C147.408 128.766 148.029 129.635 148.856 130.324C149.712 130.986 150.76 131.317 152.001 131.317ZM175.509 135.828C173.22 135.828 171.482 135.124 170.295 133.717C169.137 132.31 168.557 130.503 168.557 128.297V113.483H174.02V127.386C174.02 128.572 174.337 129.524 174.971 130.241C175.606 130.931 176.502 131.276 177.661 131.276C178.682 131.276 179.509 131.014 180.144 130.49C180.778 129.966 181.233 129.29 181.509 128.462C181.813 127.635 181.964 126.779 181.964 125.897V113.483H187.468V135.414H181.964V132.269H181.716C181.44 132.766 181.04 133.29 180.516 133.841C180.02 134.393 179.357 134.862 178.53 135.248C177.73 135.635 176.723 135.828 175.509 135.828ZM203.484 135.828C201.608 135.828 199.967 135.51 198.56 134.876C197.153 134.214 195.98 133.345 195.042 132.269C194.105 131.166 193.401 129.938 192.932 128.586C192.491 127.235 192.27 125.855 192.27 124.448C192.27 123.041 192.491 121.662 192.932 120.31C193.401 118.959 194.091 117.745 195.001 116.669C195.939 115.566 197.111 114.697 198.518 114.062C199.925 113.4 201.58 113.069 203.484 113.069C205.36 113.069 206.918 113.345 208.16 113.897C209.401 114.448 210.38 115.138 211.098 115.966C211.842 116.793 212.394 117.621 212.753 118.448C213.111 119.248 213.346 119.924 213.456 120.476C213.567 121.028 213.622 121.303 213.622 121.303H208.449C208.449 121.303 208.394 121.124 208.284 120.766C208.173 120.379 207.953 119.938 207.622 119.441C207.291 118.945 206.794 118.503 206.132 118.117C205.498 117.731 204.642 117.538 203.567 117.538C202.298 117.538 201.222 117.869 200.339 118.531C199.484 119.166 198.836 120.007 198.394 121.055C197.953 122.103 197.732 123.235 197.732 124.448C197.732 125.662 197.953 126.793 198.394 127.841C198.836 128.89 199.484 129.745 200.339 130.407C201.222 131.041 202.298 131.359 203.567 131.359C204.642 131.359 205.498 131.166 206.132 130.779C206.794 130.393 207.291 129.952 207.622 129.455C207.953 128.959 208.173 128.531 208.284 128.172C208.394 127.786 208.449 127.593 208.449 127.593H213.622C213.622 127.593 213.567 127.869 213.456 128.421C213.346 128.972 213.111 129.662 212.753 130.49C212.394 131.29 211.842 132.103 211.098 132.931C210.38 133.759 209.401 134.448 208.16 135C206.918 135.552 205.36 135.828 203.484 135.828Z" fill="white"/>
</g>
<g filter="url(#filter3_d_549_3472)">
<path d="M119.362 141.1H208.251H216.105L219.52 153.724L223.617 125.818M270.742 141.1H248.204L243.423 120.503L238.643 143.758L234.653 125.818M223.617 125.818L227.715 99.2415L234.653 125.818M223.617 125.818H234.653" stroke="white" stroke-width="4.13793" stroke-linecap="square"/>
</g>
<g filter="url(#filter4_d_549_3472)">
<path d="M262.01 135.828C260.383 135.828 258.962 135.51 257.748 134.876C256.535 134.214 255.514 133.345 254.686 132.269C253.886 131.166 253.279 129.938 252.866 128.586C252.479 127.235 252.286 125.855 252.286 124.448C252.286 123.041 252.479 121.662 252.866 120.31C253.279 118.959 253.886 117.745 254.686 116.669C255.514 115.566 256.535 114.697 257.748 114.062C258.962 113.4 260.383 113.069 262.01 113.069C263.417 113.069 264.576 113.303 265.486 113.772C266.397 114.214 267.114 114.71 267.638 115.262C268.162 115.786 268.521 116.214 268.714 116.545H268.962V103.966H274.466V135.414H268.962V132.352H268.714C268.521 132.683 268.162 133.124 267.638 133.676C267.114 134.228 266.397 134.724 265.486 135.166C264.576 135.607 263.417 135.828 262.01 135.828ZM263.459 131.317C264.7 131.317 265.735 130.986 266.562 130.324C267.39 129.635 268.01 128.766 268.424 127.717C268.838 126.669 269.045 125.579 269.045 124.448C269.045 123.317 268.838 122.228 268.424 121.179C268.01 120.131 267.39 119.276 266.562 118.614C265.735 117.924 264.7 117.579 263.459 117.579C262.217 117.579 261.169 117.924 260.314 118.614C259.486 119.276 258.866 120.131 258.452 121.179C258.038 122.228 257.831 123.317 257.831 124.448C257.831 125.579 258.038 126.669 258.452 127.717C258.866 128.766 259.486 129.635 260.314 130.324C261.169 130.986 262.217 131.317 263.459 131.317Z" fill="white"/>
</g>
<g filter="url(#filter5_d_549_3472)">
<path d="M245.914 114.414C245.914 115.937 244.679 117.172 243.155 117.172C241.632 117.172 240.396 115.937 240.396 114.414C240.396 112.89 241.632 111.655 243.155 111.655C244.679 111.655 245.914 112.89 245.914 114.414Z" fill="white"/>
</g>
</g>
<defs>
<filter id="filter0_d_549_3472" x="0.109375" y="0.75" width="406.257" height="331.25" filterUnits="userSpaceOnUse" color-interpolation-filters="sRGB">
<feFlood flood-opacity="0" result="BackgroundImageFix"/>
<feColorMatrix in="SourceAlpha" type="matrix" values="0 0 0 0 0 0 0 0 0 0 0 0 0 0 0 0 0 0 127 0" result="hardAlpha"/>
<feMorphology radius="6.25" operator="dilate" in="SourceAlpha" result="effect1_dropShadow_549_3472"/>
<feOffset dy="34.375"/>
<feGaussianBlur stdDeviation="54.6875"/>
<feColorMatrix type="matrix" values="0 0 0 0 0 0 0 0 0 0 0 0 0 0 0 0 0 0 0.56 0"/>
<feBlend mode="normal" in2="BackgroundImageFix" result="effect1_dropShadow_549_3472"/>
<feBlend mode="normal" in="SourceGraphic" in2="effect1_dropShadow_549_3472" result="shape"/>
</filter>
<filter id="filter1_ddi_549_3472" x="146.938" y="72.625" width="159.429" height="140.625" filterUnits="userSpaceOnUse" color-interpolation-filters="sRGB">
<feFlood flood-opacity="0" result="BackgroundImageFix"/>
<feColorMatrix in="SourceAlpha" type="matrix" values="0 0 0 0 0 0 0 0 0 0 0 0 0 0 0 0 0 0 127 0" result="hardAlpha"/>
<feOffset dx="-6.25" dy="10.9375"/>
<feGaussianBlur stdDeviation="10.1562"/>
<feColorMatrix type="matrix" values="0 0 0 0 0 0 0 0 0 0 0 0 0 0 0 0 0 0 0.3 0"/>
<feBlend mode="normal" in2="BackgroundImageFix" result="effect1_dropShadow_549_3472"/>
<feColorMatrix in="SourceAlpha" type="matrix" values="0 0 0 0 0 0 0 0 0 0 0 0 0 0 0 0 0 0 127 0" result="hardAlpha"/>
<feOffset dx="9.375" dy="4.6875"/>
<feGaussianBlur stdDeviation="3.125"/>
<feColorMatrix type="matrix" values="0 0 0 0 0 0 0 0 0 0 0 0 0 0 0 0 0 0 0.4 0"/>
<feBlend mode="normal" in2="effect1_dropShadow_549_3472" result="effect2_dropShadow_549_3472"/>
<feBlend mode="normal" in="SourceGraphic" in2="effect2_dropShadow_549_3472" result="shape"/>
<feColorMatrix in="SourceAlpha" type="matrix" values="0 0 0 0 0 0 0 0 0 0 0 0 0 0 0 0 0 0 127 0" result="hardAlpha"/>
<feOffset dx="-3.125" dy="-4.6875"/>
<feComposite in2="hardAlpha" operator="arithmetic" k2="-1" k3="1"/>
<feColorMatrix type="matrix" values="0 0 0 0 0 0 0 0 0 0 0 0 0 0 0 0 0 0 0.2 0"/>
<feBlend mode="normal" in2="shape" result="effect3_innerShadow_549_3472"/>
</filter>
<filter id="filter2_d_549_3472" x="115.734" y="103.966" width="99.2665" height="33.2414" filterUnits="userSpaceOnUse" color-interpolation-filters="sRGB">
<feFlood flood-opacity="0" result="BackgroundImageFix"/>
<feColorMatrix in="SourceAlpha" type="matrix" values="0 0 0 0 0 0 0 0 0 0 0 0 0 0 0 0 0 0 127 0" result="hardAlpha"/>
<feOffset dx="1.37931" dy="1.37931"/>
<feComposite in2="hardAlpha" operator="out"/>
<feColorMatrix type="matrix" values="0 0 0 0 0 0 0 0 0 0 0 0 0 0 0 0 0 0 0.25 0"/>
<feBlend mode="normal" in2="BackgroundImageFix" result="effect1_dropShadow_549_3472"/>
<feBlend mode="normal" in="SourceGraphic" in2="effect1_dropShadow_549_3472" result="shape"/>
</filter>
<filter id="filter3_d_549_3472" x="117.293" y="98.7188" width="156.896" height="56.925" filterUnits="userSpaceOnUse" color-interpolation-filters="sRGB">
<feFlood flood-opacity="0" result="BackgroundImageFix"/>
<feColorMatrix in="SourceAlpha" type="matrix" values="0 0 0 0 0 0 0 0 0 0 0 0 0 0 0 0 0 0 127 0" result="hardAlpha"/>
<feOffset dx="1.37931" dy="1.37931"/>
<feColorMatrix type="matrix" values="0 0 0 0 0 0 0 0 0 0 0 0 0 0 0 0 0 0 0.25 0"/>
<feBlend mode="normal" in2="BackgroundImageFix" result="effect1_dropShadow_549_3472"/>
<feBlend mode="normal" in="SourceGraphic" in2="effect1_dropShadow_549_3472" result="shape"/>
</filter>
<filter id="filter4_d_549_3472" x="252.286" y="103.966" width="23.5585" height="33.2414" filterUnits="userSpaceOnUse" color-interpolation-filters="sRGB">
<feFlood flood-opacity="0" result="BackgroundImageFix"/>
<feColorMatrix in="SourceAlpha" type="matrix" values="0 0 0 0 0 0 0 0 0 0 0 0 0 0 0 0 0 0 127 0" result="hardAlpha"/>
<feOffset dx="1.37931" dy="1.37931"/>
<feComposite in2="hardAlpha" operator="out"/>
<feColorMatrix type="matrix" values="0 0 0 0 0 0 0 0 0 0 0 0 0 0 0 0 0 0 0.25 0"/>
<feBlend mode="normal" in2="BackgroundImageFix" result="effect1_dropShadow_549_3472"/>
<feBlend mode="normal" in="SourceGraphic" in2="effect1_dropShadow_549_3472" result="shape"/>
</filter>
<filter id="filter5_d_549_3472" x="240.396" y="111.655" width="7.35617" height="7.35641" filterUnits="userSpaceOnUse" color-interpolation-filters="sRGB">
<feFlood flood-opacity="0" result="BackgroundImageFix"/>
<feColorMatrix in="SourceAlpha" type="matrix" values="0 0 0 0 0 0 0 0 0 0 0 0 0 0 0 0 0 0 127 0" result="hardAlpha"/>
<feOffset dx="1.83908" dy="1.83908"/>
<feComposite in2="hardAlpha" operator="out"/>
<feColorMatrix type="matrix" values="0 0 0 0 0 0 0 0 0 0 0 0 0 0 0 0 0 0 0.25 0"/>
<feBlend mode="normal" in2="BackgroundImageFix" result="effect1_dropShadow_549_3472"/>
<feBlend mode="normal" in="SourceGraphic" in2="effect1_dropShadow_549_3472" result="shape"/>
</filter>
</defs>
</svg>
