<svg width="400" height="400" viewBox="0 0 400 400" fill="none" xmlns="http://www.w3.org/2000/svg">
<path d="M285.112 104.688C285.112 104.688 252.904 69.4 201.912 71.088C150.92 72.776 107.424 106.968 71.4642 133.72C35.5042 160.472 25.8642 202.024 46.7682 234.464C67.6722 266.904 100.984 253.248 143.392 274.304C185.8 295.36 193.856 307.32 241.096 302.2C288.336 297.08 324.296 244.712 318.936 188.928C313.576 133.144 285.112 104.688 285.112 104.688Z" fill="#0F2ABF"/>
<path opacity="0.7" d="M285.112 104.688C285.112 104.688 252.904 69.4 201.912 71.088C150.92 72.776 107.424 106.968 71.4642 133.72C35.5042 160.472 25.8642 202.024 46.7682 234.464C67.6722 266.904 100.984 253.248 143.392 274.304C185.8 295.36 193.856 307.32 241.096 302.2C288.336 297.08 324.296 244.712 318.936 188.928C313.576 133.144 285.112 104.688 285.112 104.688Z" fill="#F5F0E6"/>
<path d="M206.096 322.616C293.807 322.616 364.912 318.737 364.912 313.952C364.912 309.167 293.807 305.288 206.096 305.288C118.384 305.288 47.2798 309.167 47.2798 313.952C47.2798 318.737 118.384 322.616 206.096 322.616Z" fill="#0F2ABF"/>
<path opacity="0.3" d="M206.096 322.616C293.807 322.616 364.912 318.737 364.912 313.952C364.912 309.167 293.807 305.288 206.096 305.288C118.384 305.288 47.2798 309.167 47.2798 313.952C47.2798 318.737 118.384 322.616 206.096 322.616Z" fill="#F5F0E6"/>
<path d="M299.952 183.36C299.904 183.36 300.504 180.376 300.568 180.16C301.256 178.032 303.848 174.32 306.352 174.328C306.768 174.34 307.177 174.439 307.553 174.62C307.928 174.8 308.261 175.057 308.531 175.375C308.8 175.693 309 176.064 309.116 176.463C309.233 176.863 309.264 177.283 309.208 177.696C309.024 179.464 307.44 180.96 306.008 181.832C304.328 182.88 299.952 183.36 299.952 183.36Z" fill="#0F2ABF"/>
<path d="M295.096 163.272C297.456 164.12 298.632 168.488 298.552 170.728C298.552 170.92 298.104 173.928 298.064 173.928H298.016C298.2 174.616 298.4 175.36 298.6 176.168C298.952 177.672 299.336 179.368 299.632 181.256C299.975 183.281 300.199 185.325 300.304 187.376C300.431 189.672 300.354 191.974 300.072 194.256C300.067 194.282 300.067 194.309 300.072 194.336C300.384 193.672 301.304 191.832 301.392 191.696C302.624 189.824 306.096 186.896 308.52 187.6C308.917 187.722 309.284 187.927 309.597 188.2C309.911 188.474 310.163 188.81 310.338 189.187C310.513 189.564 310.607 189.974 310.613 190.389C310.62 190.805 310.539 191.217 310.376 191.6C309.736 193.248 307.816 194.28 306.208 194.736C304.392 195.256 300.344 194.64 300.024 194.592C299.683 196.905 299.185 199.193 298.536 201.44C298.163 202.752 297.757 204.064 297.32 205.376C297.6 204.808 297.864 204.304 297.904 204.232C299.136 202.36 302.608 199.432 305.032 200.128C305.43 200.249 305.798 200.453 306.112 200.726C306.426 201 306.678 201.336 306.853 201.713C307.029 202.091 307.122 202.501 307.128 202.917C307.134 203.333 307.052 203.746 306.888 204.128C306.248 205.784 304.328 206.808 302.72 207.272C301.112 207.736 297.624 207.272 296.712 207.152C296.544 207.648 296.376 208.152 296.2 208.648C295.4 211.048 294.536 213.448 293.8 215.8C293.536 216.6 293.304 217.464 293.072 218.296C293.328 217.792 293.544 217.368 293.584 217.312C294.808 215.44 298.288 212.512 300.704 213.208C301.101 213.331 301.468 213.535 301.782 213.808C302.095 214.082 302.348 214.418 302.523 214.794C302.699 215.171 302.794 215.581 302.801 215.996C302.809 216.412 302.729 216.825 302.568 217.208C301.928 218.856 300 219.888 298.392 220.344C296.784 220.8 293.64 220.4 292.552 220.248C292.336 221.112 292.128 221.968 291.96 222.808C291.856 223.384 291.72 223.936 291.648 224.52C291.576 225.104 291.488 225.672 291.408 226.232C291.296 227.328 291.168 228.464 291.088 229.536C291.024 230.28 290.976 230.992 290.928 231.704C291.176 230.904 291.728 229.256 291.768 229.12C292.656 227.361 293.978 225.858 295.608 224.752C295.697 224.551 295.807 224.361 295.936 224.184C296.163 223.835 296.46 223.537 296.809 223.311C297.158 223.084 297.551 222.933 297.963 222.868C298.374 222.804 298.794 222.826 299.196 222.934C299.598 223.042 299.973 223.234 300.296 223.496C302.2 225.096 301.72 229.64 300.848 231.704C300.8 231.824 300.088 233.08 299.632 233.864C299.976 233.448 300.296 233.064 300.656 232.6C301.352 231.752 302.072 230.92 302.84 230.024L304.016 228.752C304.4 228.312 304.864 227.904 305.288 227.48C306.288 226.512 307.352 225.576 308.448 224.656C307.696 224.048 305.08 221.832 304.328 220.328C303.576 218.824 303.04 216.72 303.824 215.136C303.995 214.755 304.245 214.415 304.557 214.138C304.869 213.86 305.235 213.652 305.633 213.526C306.031 213.4 306.451 213.359 306.866 213.406C307.281 213.453 307.681 213.588 308.04 213.8C310.16 215.128 310.376 219.648 309.824 221.8C309.824 221.936 309.216 223.448 308.888 224.272C309.552 223.728 310.208 223.176 310.896 222.672C312.88 221.136 314.936 219.648 316.976 218.152L318.84 216.768C318.576 216.552 315.408 213.992 314.56 212.312C313.816 210.816 313.272 208.704 314.056 207.112C314.228 206.732 314.479 206.393 314.791 206.116C315.102 205.84 315.469 205.632 315.867 205.506C316.264 205.38 316.684 205.339 317.098 205.385C317.512 205.432 317.912 205.565 318.272 205.776C320.392 207.112 320.608 211.632 320.056 213.776C320.016 213.944 319.192 216.12 318.952 216.664C320.32 215.64 321.672 214.616 322.952 213.552C324.704 212.121 326.361 210.576 327.912 208.928C327.792 208.832 324.472 206.176 323.608 204.448C322.856 202.952 322.32 200.84 323.104 199.256C323.274 198.876 323.523 198.536 323.834 198.258C324.146 197.981 324.512 197.772 324.909 197.646C325.306 197.52 325.726 197.479 326.14 197.526C326.554 197.574 326.953 197.708 327.312 197.92C329.44 199.248 329.656 203.768 329.104 205.92C329.064 206.056 328.44 207.72 328.12 208.504L328.248 208.576C329.765 206.877 331.128 205.045 332.32 203.104C332.984 202.048 333.568 201 334.112 199.96C333.44 199.528 330.408 197.56 329.456 196.056C328.504 194.552 327.784 192.616 328.384 190.952C328.513 190.56 328.723 190.2 328.999 189.894C329.275 189.588 329.612 189.343 329.989 189.174C330.365 189.005 330.772 188.917 331.185 188.915C331.597 188.912 332.006 188.996 332.384 189.16C334.648 190.248 335.352 194.72 335.04 196.936C335.04 197.056 334.72 198.264 334.488 199.144C334.72 198.672 334.976 198.192 335.192 197.736C335.992 196.024 336.672 194.408 337.232 192.936C337.552 192.136 337.816 191.336 338.032 190.672C337.592 189.872 335.88 186.792 335.712 185.072C335.544 183.352 335.816 181.24 337.12 180.04C337.417 179.748 337.773 179.522 338.163 179.377C338.554 179.232 338.971 179.17 339.386 179.197C339.802 179.223 340.208 179.337 340.577 179.53C340.946 179.724 341.27 179.993 341.528 180.32C343.032 182.328 341.6 186.616 340.304 188.448C340.192 188.6 338.152 190.848 338.128 190.848V190.8C337.904 191.48 337.664 192.208 337.376 192.992C336.848 194.44 336.224 196.08 335.44 197.792C334.604 199.669 333.662 201.496 332.616 203.264C331.451 205.245 330.112 207.119 328.616 208.864L328.56 208.928C329.184 208.536 330.96 207.52 331.112 207.456C333.176 206.576 337.672 206.072 339.32 207.968C339.584 208.29 339.778 208.663 339.888 209.065C339.999 209.466 340.024 209.886 339.962 210.298C339.9 210.709 339.753 211.103 339.529 211.455C339.306 211.806 339.011 212.106 338.664 212.336C337.216 213.36 335.04 213.136 333.448 212.648C331.648 212.08 328.648 209.336 328.368 209.12C326.808 210.86 325.132 212.493 323.352 214.008C322.312 214.904 321.248 215.768 320.152 216.616C320.704 216.304 321.2 216.024 321.272 215.992C323.328 215.112 327.824 214.608 329.472 216.504C329.737 216.825 329.932 217.199 330.043 217.6C330.154 218.002 330.18 218.422 330.118 218.834C330.056 219.246 329.908 219.641 329.684 219.992C329.46 220.343 329.164 220.643 328.816 220.872C327.376 221.896 325.2 221.672 323.608 221.184C322.016 220.696 319.352 218.392 318.664 217.776L317.408 218.744C315.392 220.288 313.408 221.816 311.448 223.376C310.768 223.928 310.12 224.496 309.464 225.056C309.96 224.776 310.368 224.544 310.44 224.52C312.496 223.632 316.992 223.136 318.64 225.024C318.906 225.345 319.102 225.718 319.214 226.12C319.326 226.522 319.352 226.942 319.29 227.355C319.228 227.767 319.08 228.162 318.855 228.513C318.63 228.864 318.333 229.164 317.984 229.392C316.536 230.416 314.368 230.192 312.776 229.712C311.184 229.232 308.776 227.136 307.976 226.408C307.328 227.008 306.672 227.6 306.072 228.216C305.664 228.64 305.272 229.016 304.872 229.472C304.472 229.928 304.072 230.336 303.72 230.768C303.024 231.616 302.296 232.496 301.632 233.344C301.168 233.928 300.736 234.496 300.304 235.064C300.968 234.512 302.312 233.464 302.432 233.376C304.328 232.192 308.696 231.016 310.616 232.632C310.926 232.911 311.174 233.252 311.344 233.633C311.513 234.014 311.601 234.427 311.601 234.844C311.601 235.261 311.513 235.674 311.344 236.055C311.174 236.436 310.926 236.777 310.616 237.056C309.344 238.28 307.168 238.416 305.52 238.16C303.696 237.872 300.4 235.76 299.992 235.456C299.272 236.4 298.584 237.328 297.944 238.216C295.728 241.28 294 243.912 292.816 245.776L292.696 245.96L291.16 245.216C291.24 245.096 291.32 244.984 291.4 244.856C292.64 243 294.448 240.376 296.752 237.328C297.48 236.368 298.272 235.352 299.096 234.312C298.238 233.379 297.437 232.396 296.696 231.368C294.928 232.056 291.256 232.088 290.784 232.088C290.712 233.272 290.648 234.424 290.6 235.512C290.44 239.296 290.456 242.448 290.496 244.648V244.912L288.808 244.112C288.808 241.928 288.896 238.96 289.12 235.464C289.192 234.256 289.296 232.968 289.416 231.656C288.944 231.536 285.128 230.552 283.688 229.4C282.384 228.36 281.008 226.664 281.056 224.896C281.051 224.479 281.135 224.066 281.302 223.683C281.468 223.301 281.713 222.958 282.021 222.677C282.33 222.396 282.694 222.183 283.09 222.053C283.486 221.922 283.905 221.877 284.32 221.92C286.808 222.24 288.888 226.256 289.304 228.456C289.304 228.584 289.432 230.056 289.48 230.936C289.536 230.392 289.576 229.872 289.632 229.336C289.744 228.24 289.888 227.144 290.04 225.968C290.128 225.408 290.224 224.84 290.312 224.264C290.4 223.688 290.552 223.096 290.672 222.504C290.976 221.144 291.344 219.776 291.752 218.408C290.792 218.304 287.392 217.904 285.928 217.072C284.464 216.24 282.864 214.768 282.648 213.016C282.58 212.604 282.599 212.182 282.706 211.779C282.812 211.375 283.002 210.998 283.265 210.674C283.527 210.349 283.855 210.083 284.227 209.894C284.599 209.705 285.007 209.596 285.424 209.576C287.928 209.512 290.6 213.168 291.336 215.28C291.384 215.416 291.744 216.992 291.92 217.864C292.176 217.064 292.416 216.216 292.72 215.4C293.52 213 294.424 210.648 295.304 208.272C295.576 207.544 295.832 206.816 296.104 206.096C295.76 206.096 291.704 205.672 290.072 204.736C288.624 203.936 287.008 202.432 286.784 200.68C286.718 200.268 286.74 199.848 286.847 199.445C286.954 199.042 287.145 198.667 287.407 198.343C287.669 198.018 287.995 197.753 288.366 197.563C288.737 197.373 289.144 197.263 289.56 197.24C292.072 197.176 294.744 200.832 295.48 202.944C295.536 203.104 296.048 205.344 296.152 205.96C296.728 204.36 297.296 202.76 297.752 201.16C298.428 199 298.963 196.798 299.352 194.568C299.192 194.568 294.952 194.168 293.288 193.208C291.832 192.408 290.216 190.904 290 189.152C289.934 188.74 289.956 188.32 290.063 187.917C290.17 187.514 290.361 187.139 290.623 186.815C290.885 186.49 291.211 186.225 291.582 186.035C291.953 185.845 292.36 185.735 292.776 185.712C295.28 185.656 297.952 189.304 298.688 191.416C298.736 191.56 299.128 193.288 299.296 194.112H299.44C299.77 191.859 299.899 189.58 299.824 187.304C299.824 186.048 299.704 184.856 299.584 183.688C298.784 183.688 295.152 183.688 293.552 183C291.952 182.312 290.248 181.048 289.832 179.328C289.721 178.925 289.696 178.503 289.76 178.09C289.823 177.677 289.973 177.282 290.199 176.931C290.426 176.58 290.724 176.28 291.074 176.052C291.425 175.824 291.819 175.673 292.232 175.608C294.72 175.272 297.776 178.608 298.744 180.632C298.792 180.744 299.208 181.92 299.488 182.776C299.432 182.256 299.376 181.712 299.304 181.216C299.056 179.336 298.704 177.624 298.384 176.12C298.192 175.264 298.008 174.52 297.824 173.776C297.024 173.376 293.888 171.728 292.808 170.392C291.728 169.056 290.784 167.144 291.208 165.424C291.299 165.014 291.477 164.628 291.728 164.292C291.98 163.955 292.3 163.676 292.668 163.473C293.035 163.269 293.442 163.146 293.86 163.112C294.279 163.077 294.7 163.132 295.096 163.272Z" fill="#0F2ABF"/>
<path d="M340.44 201.936C338.48 201.856 334.56 199.848 334.56 199.84C334.56 199.832 336.664 197.664 336.816 197.544C338.568 196.144 342.776 194.48 344.864 195.864C345.205 196.105 345.491 196.414 345.704 196.773C345.917 197.131 346.053 197.53 346.102 197.944C346.151 198.358 346.112 198.778 345.988 199.176C345.865 199.575 345.659 199.942 345.384 200.256C344.264 201.6 342.112 202 340.44 201.936Z" fill="#0F2ABF"/>
<g opacity="0.5">
<path d="M299.952 183.36C299.904 183.36 300.504 180.376 300.568 180.16C301.256 178.032 303.848 174.32 306.352 174.328C306.768 174.34 307.177 174.439 307.553 174.62C307.928 174.8 308.261 175.057 308.531 175.375C308.8 175.693 309 176.064 309.116 176.463C309.233 176.863 309.264 177.283 309.208 177.696C309.024 179.464 307.44 180.96 306.008 181.832C304.328 182.88 299.952 183.36 299.952 183.36Z" fill="#F5F0E6"/>
<path d="M295.096 163.272C297.456 164.12 298.632 168.488 298.552 170.728C298.552 170.92 298.104 173.928 298.064 173.928H298.016C298.2 174.616 298.4 175.36 298.6 176.168C298.952 177.672 299.336 179.368 299.632 181.256C299.975 183.281 300.199 185.325 300.304 187.376C300.431 189.672 300.354 191.974 300.072 194.256C300.067 194.282 300.067 194.309 300.072 194.336C300.384 193.672 301.304 191.832 301.392 191.696C302.624 189.824 306.096 186.896 308.52 187.6C308.917 187.722 309.284 187.927 309.597 188.2C309.911 188.474 310.163 188.81 310.338 189.187C310.513 189.564 310.607 189.974 310.613 190.389C310.62 190.805 310.539 191.217 310.376 191.6C309.736 193.248 307.816 194.28 306.208 194.736C304.392 195.256 300.344 194.64 300.024 194.592C299.683 196.905 299.185 199.193 298.536 201.44C298.163 202.752 297.757 204.064 297.32 205.376C297.6 204.808 297.864 204.304 297.904 204.232C299.136 202.36 302.608 199.432 305.032 200.128C305.43 200.249 305.798 200.453 306.112 200.726C306.426 201 306.678 201.336 306.853 201.713C307.029 202.091 307.122 202.501 307.128 202.917C307.134 203.333 307.052 203.746 306.888 204.128C306.248 205.784 304.328 206.808 302.72 207.272C301.112 207.736 297.624 207.272 296.712 207.152C296.544 207.648 296.376 208.152 296.2 208.648C295.4 211.048 294.536 213.448 293.8 215.8C293.536 216.6 293.304 217.464 293.072 218.296C293.328 217.792 293.544 217.368 293.584 217.312C294.808 215.44 298.288 212.512 300.704 213.208C301.101 213.331 301.468 213.535 301.782 213.808C302.095 214.082 302.348 214.418 302.523 214.794C302.699 215.171 302.794 215.581 302.801 215.996C302.809 216.412 302.729 216.825 302.568 217.208C301.928 218.856 300 219.888 298.392 220.344C296.784 220.8 293.64 220.4 292.552 220.248C292.336 221.112 292.128 221.968 291.96 222.808C291.856 223.384 291.72 223.936 291.648 224.52C291.576 225.104 291.488 225.672 291.408 226.232C291.296 227.328 291.168 228.464 291.088 229.536C291.024 230.28 290.976 230.992 290.928 231.704C291.176 230.904 291.728 229.256 291.768 229.12C292.656 227.361 293.978 225.858 295.608 224.752C295.697 224.551 295.807 224.361 295.936 224.184C296.163 223.835 296.46 223.537 296.809 223.311C297.158 223.084 297.551 222.933 297.963 222.868C298.374 222.804 298.794 222.826 299.196 222.934C299.598 223.042 299.973 223.234 300.296 223.496C302.2 225.096 301.72 229.64 300.848 231.704C300.8 231.824 300.088 233.08 299.632 233.864C299.976 233.448 300.296 233.064 300.656 232.6C301.352 231.752 302.072 230.92 302.84 230.024L304.016 228.752C304.4 228.312 304.864 227.904 305.288 227.48C306.288 226.512 307.352 225.576 308.448 224.656C307.696 224.048 305.08 221.832 304.328 220.328C303.576 218.824 303.04 216.72 303.824 215.136C303.995 214.755 304.245 214.415 304.557 214.138C304.869 213.86 305.235 213.652 305.633 213.526C306.031 213.4 306.451 213.359 306.866 213.406C307.281 213.453 307.681 213.588 308.04 213.8C310.16 215.128 310.376 219.648 309.824 221.8C309.824 221.936 309.216 223.448 308.888 224.272C309.552 223.728 310.208 223.176 310.896 222.672C312.88 221.136 314.936 219.648 316.976 218.152L318.84 216.768C318.576 216.552 315.408 213.992 314.56 212.312C313.816 210.816 313.272 208.704 314.056 207.112C314.228 206.732 314.479 206.393 314.791 206.116C315.102 205.84 315.469 205.632 315.867 205.506C316.264 205.38 316.684 205.339 317.098 205.385C317.512 205.432 317.912 205.565 318.272 205.776C320.392 207.112 320.608 211.632 320.056 213.776C320.016 213.944 319.192 216.12 318.952 216.664C320.32 215.64 321.672 214.616 322.952 213.552C324.704 212.121 326.361 210.576 327.912 208.928C327.792 208.832 324.472 206.176 323.608 204.448C322.856 202.952 322.32 200.84 323.104 199.256C323.274 198.876 323.523 198.536 323.834 198.258C324.146 197.981 324.512 197.772 324.909 197.646C325.306 197.52 325.726 197.479 326.14 197.526C326.554 197.574 326.953 197.708 327.312 197.92C329.44 199.248 329.656 203.768 329.104 205.92C329.064 206.056 328.44 207.72 328.12 208.504L328.248 208.576C329.765 206.877 331.128 205.045 332.32 203.104C332.984 202.048 333.568 201 334.112 199.96C333.44 199.528 330.408 197.56 329.456 196.056C328.504 194.552 327.784 192.616 328.384 190.952C328.513 190.56 328.723 190.2 328.999 189.894C329.275 189.588 329.612 189.343 329.989 189.174C330.365 189.005 330.772 188.917 331.185 188.915C331.597 188.912 332.006 188.996 332.384 189.16C334.648 190.248 335.352 194.72 335.04 196.936C335.04 197.056 334.72 198.264 334.488 199.144C334.72 198.672 334.976 198.192 335.192 197.736C335.992 196.024 336.672 194.408 337.232 192.936C337.552 192.136 337.816 191.336 338.032 190.672C337.592 189.872 335.88 186.792 335.712 185.072C335.544 183.352 335.816 181.24 337.12 180.04C337.417 179.748 337.773 179.522 338.163 179.377C338.554 179.232 338.971 179.17 339.386 179.197C339.802 179.223 340.208 179.337 340.577 179.53C340.946 179.724 341.27 179.993 341.528 180.32C343.032 182.328 341.6 186.616 340.304 188.448C340.192 188.6 338.152 190.848 338.128 190.848V190.8C337.904 191.48 337.664 192.208 337.376 192.992C336.848 194.44 336.224 196.08 335.44 197.792C334.604 199.669 333.662 201.496 332.616 203.264C331.451 205.245 330.112 207.119 328.616 208.864L328.56 208.928C329.184 208.536 330.96 207.52 331.112 207.456C333.176 206.576 337.672 206.072 339.32 207.968C339.584 208.29 339.778 208.663 339.888 209.065C339.999 209.466 340.024 209.886 339.962 210.298C339.9 210.709 339.753 211.103 339.529 211.455C339.306 211.806 339.011 212.106 338.664 212.336C337.216 213.36 335.04 213.136 333.448 212.648C331.648 212.08 328.648 209.336 328.368 209.12C326.808 210.86 325.132 212.493 323.352 214.008C322.312 214.904 321.248 215.768 320.152 216.616C320.704 216.304 321.2 216.024 321.272 215.992C323.328 215.112 327.824 214.608 329.472 216.504C329.737 216.825 329.932 217.199 330.043 217.6C330.154 218.002 330.18 218.422 330.118 218.834C330.056 219.246 329.908 219.641 329.684 219.992C329.46 220.343 329.164 220.643 328.816 220.872C327.376 221.896 325.2 221.672 323.608 221.184C322.016 220.696 319.352 218.392 318.664 217.776L317.408 218.744C315.392 220.288 313.408 221.816 311.448 223.376C310.768 223.928 310.12 224.496 309.464 225.056C309.96 224.776 310.368 224.544 310.44 224.52C312.496 223.632 316.992 223.136 318.64 225.024C318.906 225.345 319.102 225.718 319.214 226.12C319.326 226.522 319.352 226.942 319.29 227.355C319.228 227.767 319.08 228.162 318.855 228.513C318.63 228.864 318.333 229.164 317.984 229.392C316.536 230.416 314.368 230.192 312.776 229.712C311.184 229.232 308.776 227.136 307.976 226.408C307.328 227.008 306.672 227.6 306.072 228.216C305.664 228.64 305.272 229.016 304.872 229.472C304.472 229.928 304.072 230.336 303.72 230.768C303.024 231.616 302.296 232.496 301.632 233.344C301.168 233.928 300.736 234.496 300.304 235.064C300.968 234.512 302.312 233.464 302.432 233.376C304.328 232.192 308.696 231.016 310.616 232.632C310.926 232.911 311.174 233.252 311.344 233.633C311.513 234.014 311.601 234.427 311.601 234.844C311.601 235.261 311.513 235.674 311.344 236.055C311.174 236.436 310.926 236.777 310.616 237.056C309.344 238.28 307.168 238.416 305.52 238.16C303.696 237.872 300.4 235.76 299.992 235.456C299.272 236.4 298.584 237.328 297.944 238.216C295.728 241.28 294 243.912 292.816 245.776L292.696 245.96L291.16 245.216C291.24 245.096 291.32 244.984 291.4 244.856C292.64 243 294.448 240.376 296.752 237.328C297.48 236.368 298.272 235.352 299.096 234.312C298.238 233.379 297.437 232.396 296.696 231.368C294.928 232.056 291.256 232.088 290.784 232.088C290.712 233.272 290.648 234.424 290.6 235.512C290.44 239.296 290.456 242.448 290.496 244.648V244.912L288.808 244.112C288.808 241.928 288.896 238.96 289.12 235.464C289.192 234.256 289.296 232.968 289.416 231.656C288.944 231.536 285.128 230.552 283.688 229.4C282.384 228.36 281.008 226.664 281.056 224.896C281.051 224.479 281.135 224.066 281.302 223.683C281.468 223.301 281.713 222.958 282.021 222.677C282.33 222.396 282.694 222.183 283.09 222.053C283.486 221.922 283.905 221.877 284.32 221.92C286.808 222.24 288.888 226.256 289.304 228.456C289.304 228.584 289.432 230.056 289.48 230.936C289.536 230.392 289.576 229.872 289.632 229.336C289.744 228.24 289.888 227.144 290.04 225.968C290.128 225.408 290.224 224.84 290.312 224.264C290.4 223.688 290.552 223.096 290.672 222.504C290.976 221.144 291.344 219.776 291.752 218.408C290.792 218.304 287.392 217.904 285.928 217.072C284.464 216.24 282.864 214.768 282.648 213.016C282.58 212.604 282.599 212.182 282.706 211.779C282.812 211.375 283.002 210.998 283.265 210.674C283.527 210.349 283.855 210.083 284.227 209.894C284.599 209.705 285.007 209.596 285.424 209.576C287.928 209.512 290.6 213.168 291.336 215.28C291.384 215.416 291.744 216.992 291.92 217.864C292.176 217.064 292.416 216.216 292.72 215.4C293.52 213 294.424 210.648 295.304 208.272C295.576 207.544 295.832 206.816 296.104 206.096C295.76 206.096 291.704 205.672 290.072 204.736C288.624 203.936 287.008 202.432 286.784 200.68C286.718 200.268 286.74 199.848 286.847 199.445C286.954 199.042 287.145 198.667 287.407 198.343C287.669 198.018 287.995 197.753 288.366 197.563C288.737 197.373 289.144 197.263 289.56 197.24C292.072 197.176 294.744 200.832 295.48 202.944C295.536 203.104 296.048 205.344 296.152 205.96C296.728 204.36 297.296 202.76 297.752 201.16C298.428 199 298.963 196.798 299.352 194.568C299.192 194.568 294.952 194.168 293.288 193.208C291.832 192.408 290.216 190.904 290 189.152C289.934 188.74 289.956 188.32 290.063 187.917C290.17 187.514 290.361 187.139 290.623 186.815C290.885 186.49 291.211 186.225 291.582 186.035C291.953 185.845 292.36 185.735 292.776 185.712C295.28 185.656 297.952 189.304 298.688 191.416C298.736 191.56 299.128 193.288 299.296 194.112H299.44C299.77 191.859 299.899 189.58 299.824 187.304C299.824 186.048 299.704 184.856 299.584 183.688C298.784 183.688 295.152 183.688 293.552 183C291.952 182.312 290.248 181.048 289.832 179.328C289.721 178.925 289.696 178.503 289.76 178.09C289.823 177.677 289.973 177.282 290.199 176.931C290.426 176.58 290.724 176.28 291.074 176.052C291.425 175.824 291.819 175.673 292.232 175.608C294.72 175.272 297.776 178.608 298.744 180.632C298.792 180.744 299.208 181.92 299.488 182.776C299.432 182.256 299.376 181.712 299.304 181.216C299.056 179.336 298.704 177.624 298.384 176.12C298.192 175.264 298.008 174.52 297.824 173.776C297.024 173.376 293.888 171.728 292.808 170.392C291.728 169.056 290.784 167.144 291.208 165.424C291.299 165.014 291.477 164.628 291.728 164.292C291.98 163.955 292.3 163.676 292.668 163.473C293.035 163.269 293.442 163.146 293.86 163.112C294.279 163.077 294.7 163.132 295.096 163.272Z" fill="#F5F0E6"/>
<path d="M340.44 201.936C338.48 201.856 334.56 199.848 334.56 199.84C334.56 199.832 336.664 197.664 336.816 197.544C338.568 196.144 342.776 194.48 344.864 195.864C345.205 196.105 345.491 196.414 345.704 196.773C345.917 197.131 346.053 197.53 346.102 197.944C346.151 198.358 346.112 198.778 345.988 199.176C345.865 199.575 345.659 199.942 345.384 200.256C344.264 201.6 342.112 202 340.44 201.936Z" fill="#F5F0E6"/>
</g>
<path d="M317.552 251.024C317.552 251.024 305.656 222.344 299 223.592C292.344 224.84 310.4 269.304 310.4 269.304C310.4 269.304 289.472 229.824 275.2 229.824C260.928 229.824 280.432 273.464 298.504 288.008C298.504 288.008 269.968 257.256 253.32 263.904C236.672 270.552 286.616 301.72 286.616 301.72C286.616 301.72 257.6 292.576 260.928 299.64C264.256 306.704 273.296 307.952 273.296 307.952L240.496 309.616H354.656L328.968 307.12C328.968 307.12 355.608 293.824 348.472 288.424C341.336 283.024 325.64 294.656 325.64 294.656C325.64 294.656 352.752 264.736 347.52 253.512C342.288 242.288 318.976 273.88 318.976 273.88C318.976 273.88 338.008 233.568 334.176 226.504C330.344 219.44 317.552 251.024 317.552 251.024Z" fill="#0F2ABF"/>
<path opacity="0.4" d="M317.552 251.024C317.552 251.024 305.656 222.344 299 223.592C292.344 224.84 310.4 269.304 310.4 269.304C310.4 269.304 289.472 229.824 275.2 229.824C260.928 229.824 280.432 273.464 298.504 288.008C298.504 288.008 269.968 257.256 253.32 263.904C236.672 270.552 286.616 301.72 286.616 301.72C286.616 301.72 257.6 292.576 260.928 299.64C264.256 306.704 273.296 307.952 273.296 307.952L240.496 309.616H354.656L328.968 307.12C328.968 307.12 355.608 293.824 348.472 288.424C341.336 283.024 325.64 294.656 325.64 294.656C325.64 294.656 352.752 264.736 347.52 253.512C342.288 242.288 318.976 273.88 318.976 273.88C318.976 273.88 338.008 233.568 334.176 226.504C330.344 219.44 317.552 251.024 317.552 251.024Z" fill="#F5F0E6"/>
<path d="M321.36 252.528C310.888 283.448 310.888 305.328 310.888 305.328C310.888 305.328 323.256 305.8 336.104 296.288" stroke="#263238" stroke-width="0.8" stroke-linecap="round" stroke-linejoin="round"/>
<path d="M316.128 269.184C313.968 259.939 311.104 250.872 307.56 242.064" stroke="#263238" stroke-width="0.8" stroke-linecap="round" stroke-linejoin="round"/>
<path d="M285.208 251.104L311.84 290.584C311.84 290.584 329.92 275.384 336.104 266.8" stroke="#263238" stroke-width="0.8" stroke-linecap="round" stroke-linejoin="round"/>
<path d="M311.368 300.104C311.368 300.104 283.304 286.784 271.888 279.2" stroke="#263238" stroke-width="0.8" stroke-linecap="round" stroke-linejoin="round"/>
<path d="M286.176 87.2H200.704C197.204 87.2 194.368 90.0367 194.368 93.5359V303.28C194.368 306.779 197.204 309.616 200.704 309.616H286.176C289.675 309.616 292.512 306.779 292.512 303.28V93.5359C292.512 90.0367 289.675 87.2 286.176 87.2Z" fill="#F5F0E6" stroke="#263238" stroke-width="0.8" stroke-linecap="round" stroke-linejoin="round"/>
<path d="M289.232 126.136C288.886 126.136 288.554 125.999 288.31 125.754C288.065 125.509 287.928 125.178 287.928 124.832V107.352C287.954 107.023 288.102 106.715 288.345 106.491C288.587 106.267 288.905 106.142 289.236 106.142C289.566 106.142 289.884 106.267 290.127 106.491C290.369 106.715 290.518 107.023 290.544 107.352V124.8C290.547 124.974 290.515 125.147 290.451 125.309C290.386 125.471 290.29 125.619 290.168 125.743C290.046 125.868 289.9 125.966 289.739 126.034C289.579 126.101 289.406 126.136 289.232 126.136Z" fill="#263238"/>
<path d="M289.232 142.328C288.886 142.328 288.554 142.191 288.31 141.946C288.065 141.702 287.928 141.37 287.928 141.024V131.256C287.954 130.927 288.102 130.619 288.345 130.395C288.587 130.171 288.905 130.046 289.236 130.046C289.566 130.046 289.884 130.171 290.127 130.395C290.369 130.619 290.518 130.927 290.544 131.256V141.024C290.542 141.371 290.402 141.702 290.157 141.947C289.911 142.191 289.578 142.328 289.232 142.328Z" fill="#263238"/>
<path d="M278.776 87.2H193.304C189.804 87.2 186.968 90.0367 186.968 93.5359V303.28C186.968 306.779 189.804 309.616 193.304 309.616H278.776C282.275 309.616 285.112 306.779 285.112 303.28V93.5359C285.112 90.0367 282.275 87.2 278.776 87.2Z" fill="#263238" stroke="#263238" stroke-width="0.8" stroke-linecap="round" stroke-linejoin="round"/>
<path d="M278.576 102.008H193.504V292.776H278.576V102.008Z" fill="#0F2ABF"/>
<path d="M223.408 95.9119H246.056" stroke="#F5F0E6" stroke-width="2.4" stroke-linecap="round" stroke-linejoin="round"/>
<path d="M232.992 299.528C232.992 301.088 232.016 302.352 230.808 302.352C229.6 302.352 228.632 301.088 228.632 299.528C228.632 297.968 229.608 296.696 230.808 296.696C232.008 296.696 232.992 297.96 232.992 299.528Z" fill="#F5F0E6"/>
<path d="M236.04 149.48C244.187 149.48 250.792 141.779 250.792 132.28C250.792 122.781 244.187 115.08 236.04 115.08C227.892 115.08 221.288 122.781 221.288 132.28C221.288 141.779 227.892 149.48 236.04 149.48Z" fill="#F5F0E6"/>
<path d="M236.04 132.064C239.133 132.064 241.64 129.138 241.64 125.528C241.64 121.918 239.133 118.992 236.04 118.992C232.947 118.992 230.44 121.918 230.44 125.528C230.44 129.138 232.947 132.064 236.04 132.064Z" fill="#263238" stroke="#263238" stroke-width="0.8" stroke-linecap="round" stroke-linejoin="round"/>
<path d="M236.04 133.8C230.44 133.8 225.856 138.096 225.856 143.4C225.86 143.894 225.906 144.386 225.992 144.872C227.234 146.322 228.775 147.486 230.51 148.284C232.244 149.081 234.131 149.495 236.04 149.495C237.949 149.495 239.836 149.081 241.57 148.284C243.305 147.486 244.846 146.322 246.088 144.872C246.167 144.385 246.21 143.893 246.216 143.4C246.216 138.096 241.656 133.8 236.04 133.8Z" fill="#263238" stroke="#263238" stroke-width="0.8" stroke-linecap="round" stroke-linejoin="round"/>
<path d="M253.976 207.2H218.104C217.154 207.162 216.259 206.75 215.614 206.052C214.969 205.354 214.627 204.429 214.664 203.48V181.336C214.664 168.576 224.264 158.192 236.04 158.192C247.816 158.192 257.408 168.592 257.408 181.336V203.464C257.428 203.935 257.356 204.405 257.194 204.847C257.033 205.29 256.785 205.697 256.467 206.044C256.148 206.391 255.764 206.671 255.336 206.87C254.909 207.068 254.447 207.18 253.976 207.2ZM221.536 199.76H250.536V181.36C250.536 172.704 244.032 165.656 236.04 165.656C228.048 165.656 221.536 172.704 221.536 181.36V199.76Z" fill="#263238"/>
<path d="M260.944 192.088H211.136V239.208H260.944V192.088Z" fill="#F5F0E6"/>
<path d="M243.296 224.528L239.6 215.64C240.417 215.022 241.078 214.221 241.53 213.301C241.981 212.381 242.211 211.368 242.2 210.344C242.2 206.8 239.552 203.944 236.28 203.944C233.008 203.944 230.368 206.808 230.368 210.344C230.355 211.368 230.584 212.38 231.034 213.3C231.484 214.22 232.144 215.021 232.96 215.64L229.272 224.528H243.296Z" fill="#263238" stroke="#263238" stroke-width="0.8" stroke-linecap="round" stroke-linejoin="round"/>
<path d="M220.864 281.552C220.94 281.608 221.033 281.639 221.128 281.64C221.196 281.64 221.262 281.623 221.322 281.591C221.382 281.559 221.434 281.512 221.472 281.456L278.576 203.784V202.312L220.8 280.944C220.764 280.988 220.737 281.039 220.721 281.093C220.705 281.148 220.7 281.205 220.706 281.261C220.711 281.318 220.728 281.372 220.756 281.422C220.783 281.472 220.819 281.516 220.864 281.552Z" fill="#F5F0E6"/>
<path d="M267.088 129.992C267.054 130.038 267.029 130.09 267.016 130.146C267.002 130.202 267 130.259 267.009 130.316C267.018 130.373 267.038 130.427 267.068 130.476C267.098 130.524 267.137 130.567 267.184 130.6C267.278 130.667 267.394 130.694 267.508 130.676C267.621 130.658 267.723 130.596 267.792 130.504L278.576 115.84V114.4L267.088 129.992Z" fill="#F5F0E6"/>
<path d="M193.504 231.568L264 135.704C264.068 135.611 264.096 135.494 264.078 135.38C264.06 135.266 263.997 135.164 263.904 135.096C263.811 135.028 263.694 135 263.58 135.018C263.466 135.036 263.364 135.099 263.296 135.192L193.536 230.096L193.504 231.568Z" fill="#F5F0E6"/>
<path d="M214.24 291.008C214.308 291.007 214.375 290.99 214.436 290.96C214.497 290.929 214.55 290.886 214.592 290.832L218.592 285.424C218.626 285.378 218.65 285.326 218.664 285.27C218.677 285.214 218.68 285.156 218.671 285.1C218.662 285.043 218.642 284.989 218.612 284.94C218.582 284.892 218.542 284.849 218.496 284.816C218.402 284.749 218.286 284.722 218.172 284.74C218.058 284.758 217.956 284.82 217.888 284.912L213.888 290.312C213.853 290.358 213.828 290.41 213.814 290.465C213.8 290.52 213.797 290.578 213.805 290.634C213.813 290.691 213.832 290.745 213.862 290.794C213.891 290.843 213.93 290.886 213.976 290.92C214.051 290.979 214.144 291.011 214.24 291.008Z" fill="#F5F0E6"/>
<path d="M278.576 219.336L231.696 283.104C231.648 283.169 231.62 283.245 231.613 283.325C231.607 283.405 231.623 283.485 231.659 283.557C231.696 283.628 231.751 283.688 231.82 283.73C231.889 283.771 231.968 283.793 232.048 283.792C232.116 283.793 232.184 283.778 232.245 283.747C232.307 283.717 232.36 283.672 232.4 283.616L278.576 220.8V219.336Z" fill="#F5F0E6"/>
<path d="M113.928 129.712C114.721 127.954 115.104 126.039 115.048 124.112C115.048 120.536 110.72 118.464 105.632 117.896C100.544 117.328 98.2878 119.4 99.0398 120.72C99.8213 121.809 100.775 122.762 101.864 123.544C101.864 123.544 96.7758 120.72 93.3838 122.984C89.9918 125.248 94.8958 124.304 93.9518 126.56C93.0078 128.816 87.7358 127.88 86.4158 133.904C85.0958 139.928 88.8638 145.96 85.4718 148.6C82.0798 151.24 71.8718 147.656 68.8958 154.248C65.9198 160.84 70.1438 163.768 62.9918 167.912C55.8398 172.056 50.6238 176.104 52.6958 186.272C54.7678 196.44 61.5518 200 74.9278 196.408C88.3038 192.816 87.3598 184.728 91.7278 176.408C96.0958 168.088 102.848 169.816 104.92 165.104C106.992 160.392 104.352 154.744 104.544 150.408C104.736 146.072 109.064 145.136 110.76 140.008C112.456 134.88 113.928 129.712 113.928 129.712Z" fill="#263238" stroke="#263238" stroke-width="0.8" stroke-linecap="round" stroke-linejoin="round"/>
<path d="M54.2557 186.08C53.9048 186.788 53.7267 187.57 53.7357 188.36" stroke="#F5F0E6" stroke-width="0.4" stroke-linecap="round" stroke-linejoin="round"/>
<path d="M106.696 125.976C106.696 125.976 104.344 123.256 108.872 124.52C114.576 126.12 107.88 132.72 105.304 134.048C100.136 136.696 93.3038 135.848 89.3038 140.664C85.6718 145.016 90.5758 149.552 88.3998 153C86.2238 156.448 77.5118 154.448 74.6158 158.6C71.7198 162.752 79.8718 171.664 71.5278 176.56C65.4958 180.104 58.8878 181.464 55.6958 184.272" stroke="#F5F0E6" stroke-width="0.4" stroke-linecap="round" stroke-linejoin="round"/>
<path d="M93.1679 142.072C92.6735 143.229 92.5235 144.504 92.7359 145.744C93.4559 148.824 97.6319 154.632 93.8239 157.896C90.0159 161.16 83.4799 160.976 82.3999 164.8C81.3199 168.624 83.4879 179.128 79.8639 184C76.2399 188.872 69.1599 188.536 65.3519 191.8C61.5439 195.064 62.0879 196.88 62.0879 196.88" stroke="#F5F0E6" stroke-width="0.4" stroke-linecap="round" stroke-linejoin="round"/>
<path d="M95.0878 138.488C94.7581 138.954 94.4536 139.437 94.1758 139.936" stroke="#F5F0E6" stroke-width="0.4" stroke-linecap="round" stroke-linejoin="round"/>
<path d="M116.368 185.792L117.288 192.992C117.288 192.992 122.088 197.792 125.616 200.76C129.144 203.728 138.184 210.008 138.184 210.008L133.6 211.312C133.6 211.312 118.616 202.432 115.656 201.712C112.696 200.992 110.48 196.72 109.56 195.424C108.64 194.128 113.96 184.496 116.368 185.792Z" fill="#F5F0E6" stroke="#263238" stroke-width="0.8" stroke-linecap="round" stroke-linejoin="round"/>
<path d="M125.52 302.936C125.52 302.936 130.048 306.76 131.92 308.04C133.792 309.32 135.976 309.896 135.632 310.592C135.288 311.288 134.352 311.984 129.944 311.392C125.536 310.8 124.264 309.304 123.448 309.072C122.632 308.84 120.664 309.424 119.16 308.496C117.656 307.568 120.04 302.04 120.04 302.04C120.7 302.812 121.613 303.326 122.616 303.49C123.619 303.654 124.648 303.458 125.52 302.936Z" fill="#F5F0E6" stroke="#263238" stroke-width="0.8" stroke-linecap="round" stroke-linejoin="round"/>
<path d="M135.616 310.592C135.62 310.555 135.62 310.517 135.616 310.48C133.071 310.714 130.505 310.472 128.048 309.768C125.2 309.096 124.36 307.584 121.648 307.584C120.584 307.594 119.526 307.42 118.52 307.072C118.491 307.339 118.527 307.609 118.626 307.858C118.725 308.108 118.884 308.33 119.088 308.504C120.592 309.432 122.568 308.848 123.376 309.08C124.184 309.312 125.464 310.824 129.872 311.4C134.28 311.976 135.264 311.288 135.616 310.592Z" fill="#F5F0E6" stroke="#263238" stroke-width="0.8" stroke-linecap="round" stroke-linejoin="round"/>
<path d="M101.816 148.32C101.816 148.32 102.688 154.192 101.568 156.56C100.448 158.928 96.9439 159.184 93.9519 159.688C90.9599 160.192 84.0879 162.808 84.8319 169.552C85.5759 176.296 94.1999 190.904 94.1999 195.024C94.1999 199.144 91.5758 201.264 88.7038 209.256C85.8319 217.248 86.2078 232.112 87.1038 241.728C87.7606 248.074 89.0141 254.345 90.8479 260.456C90.8479 260.456 83.6479 272.072 80.4479 277.064C77.2479 282.056 66.0479 303.792 66.0479 303.792C66.0479 303.792 66.0479 304.536 67.7919 305.04C69.0188 305.338 70.2882 305.422 71.5439 305.288C71.5439 305.288 93.0159 279.44 97.0158 275.072C101.016 270.704 104.76 263.072 105.256 259.584C105.752 256.096 105.136 234.736 105.136 234.736C105.136 234.736 109.624 245.472 113.136 250.968C115.266 254.331 117.221 257.802 118.992 261.368C118.5 265.888 118.5 270.448 118.992 274.968C119.864 281.208 119.128 301.256 120 302.88C120.872 304.504 124.256 303.824 125.008 303.08C125.76 302.336 126.112 297.48 126.112 297.48C126.112 297.48 127.608 282.28 128.512 275.128C129.416 267.976 130.912 261.888 130.392 260.264C129.872 258.64 126.768 241.28 124.392 233.064C122.016 224.848 114.792 209.464 113.192 205.472C111.592 201.48 110.688 197.848 110.944 196.6C111.2 195.352 116.064 187.864 117.344 185.864C118.074 184.508 118.476 183 118.519 181.461C118.562 179.922 118.245 178.394 117.592 177C116.096 173.752 117.592 169.376 117.344 166.76C117.096 164.144 113.224 163.008 111.224 162.016C109.224 161.024 108.472 158.768 108.472 156.896C108.594 155.319 108.975 153.773 109.6 152.32C109.6 152.32 103.44 148.32 101.816 148.32Z" fill="#F5F0E6" stroke="#263238" stroke-width="0.8" stroke-linecap="round" stroke-linejoin="round"/>
<path d="M116.952 175.032C116.294 173.36 115.746 171.647 115.312 169.904" stroke="#263238" stroke-width="0.8" stroke-linecap="round" stroke-linejoin="round"/>
<path d="M100.736 188.936C100.736 188.936 102.992 189.432 107.512 187.176" stroke="#263238" stroke-width="0.8" stroke-linecap="round" stroke-linejoin="round"/>
<path d="M124.416 232.984C122.152 225.112 115.44 210.736 113.432 205.992C103.832 209.592 94.8559 206.52 90.6399 204.536C90.0319 205.864 89.3759 207.4 88.7038 209.256C85.8319 217.256 86.2078 232.112 87.1038 241.728C87.7606 248.074 89.0141 254.345 90.8479 260.456C90.8479 260.456 83.6479 272.072 80.4479 277.064C77.2479 282.056 66.0479 303.792 66.0479 303.792C66.0479 303.792 66.0479 304.536 67.7919 305.04C69.0188 305.338 70.2882 305.422 71.5439 305.288C71.5439 305.288 93.0159 279.44 97.0158 275.072C101.016 270.704 104.76 263.072 105.256 259.584C105.752 256.096 105.136 234.736 105.136 234.736C105.136 234.736 109.624 245.472 113.136 250.968C115.266 254.331 117.221 257.803 118.992 261.368C118.5 265.888 118.5 270.448 118.992 274.968C119.864 281.208 119.128 301.256 120 302.88C120.872 304.504 124.256 303.824 125.008 303.08C125.76 302.336 126.112 297.48 126.112 297.48C126.112 297.48 127.608 282.28 128.512 275.128C129.416 267.976 130.912 261.888 130.392 260.264C129.872 258.64 126.792 241.224 124.416 232.984Z" fill="#263238" stroke="#263238" stroke-width="0.8" stroke-linecap="round" stroke-linejoin="round"/>
<path d="M173.328 225.056V223.424H174.696V210.608H173.328H159.824H158.456V223.424H159.824V225.056H158.448V228.032H163.72V227.032H169.432V228.032H174.704V225.056H173.328Z" fill="#0F2ABF" stroke="#263238" stroke-width="0.8" stroke-linecap="round" stroke-linejoin="round"/>
<path d="M86.0479 206.776H180.256C180.634 206.776 180.996 206.926 181.263 207.193C181.53 207.46 181.68 207.822 181.68 208.2V211.064C181.68 211.442 181.53 211.804 181.263 212.071C180.996 212.338 180.634 212.488 180.256 212.488H86.0479V206.768V206.776Z" fill="#0F2ABF" stroke="#263238" stroke-width="0.8" stroke-linecap="round" stroke-linejoin="round"/>
<path d="M153.664 205.92H147.928C147.49 205.92 147.136 206.275 147.136 206.712V212.56C147.136 212.997 147.49 213.352 147.928 213.352H153.664C154.101 213.352 154.456 212.997 154.456 212.56V206.712C154.456 206.275 154.101 205.92 153.664 205.92Z" fill="#0F2ABF" stroke="#263238" stroke-width="0.8" stroke-linecap="round" stroke-linejoin="round"/>
<path d="M88.9952 212.042C90.3225 203.936 84.8277 196.289 76.722 194.962C68.6164 193.634 60.9695 199.129 59.6421 207.235C58.3148 215.34 63.8097 222.987 71.9153 224.315C80.0209 225.642 87.6678 220.147 88.9952 212.042Z" fill="#0F2ABF" stroke="#263238" stroke-width="0.8" stroke-linecap="round" stroke-linejoin="round"/>
<path d="M77.376 209.6C78.2382 209.187 78.9699 208.545 79.4907 207.743C80.0115 206.941 80.3012 206.012 80.328 205.056C80.328 202.136 77.64 199.768 74.32 199.768C71 199.768 68.312 202.168 68.312 205.056C68.3371 206.012 68.6261 206.943 69.147 207.744C69.668 208.546 70.4007 209.189 71.264 209.6C70.4012 210.014 69.6692 210.658 69.1485 211.461C68.6277 212.264 68.3383 213.195 68.312 214.152C68.312 217.072 71 219.44 74.32 219.44C77.64 219.44 80.328 217.04 80.328 214.152C80.3 213.196 80.0098 212.265 79.4893 211.463C78.9687 210.66 78.2377 210.016 77.376 209.6Z" fill="#F5F0E6" stroke="#263238" stroke-width="0.8" stroke-linecap="round" stroke-linejoin="round"/>
<path d="M135.248 212.616C135.248 212.616 139.904 214.584 141.344 214.584C142.784 214.584 144.448 213.136 145.272 211.384C146.096 209.632 146.072 208.8 145.584 209.216L144.552 210.016C144.552 210.016 145.352 208.264 144.448 208.472C143.822 208.681 143.302 209.126 143 209.712C143 209.712 142.896 208.16 142.072 208.912C141.527 209.406 141.041 209.962 140.624 210.568C140.624 210.568 140.52 208.608 140 209.12C139.48 209.632 137.528 212.424 137.528 212.424L135.248 212.616Z" fill="#F5F0E6" stroke="#263238" stroke-width="0.8" stroke-linecap="round" stroke-linejoin="round"/>
<path d="M140.624 210.552C140.624 210.552 140.312 213.032 138.768 213.448L140.624 210.552Z" fill="#F5F0E6"/>
<path d="M140.624 210.552C140.624 210.552 140.312 213.032 138.768 213.448" stroke="#263238" stroke-width="0.8" stroke-linecap="round" stroke-linejoin="round"/>
<path d="M143 209.728C143 209.728 142.2 213.648 140.936 214.272L143 209.728Z" fill="#F5F0E6"/>
<path d="M143 209.728C143 209.728 142.2 213.648 140.936 214.272" stroke="#263238" stroke-width="0.8" stroke-linecap="round" stroke-linejoin="round"/>
<path d="M144.552 210.032C144.139 211.462 143.585 212.848 142.896 214.168L144.552 210.032Z" fill="#F5F0E6"/>
<path d="M144.552 210.032C144.139 211.462 143.585 212.848 142.896 214.168" stroke="#263238" stroke-width="0.8" stroke-linecap="round" stroke-linejoin="round"/>
<path d="M110.928 161.776C110.122 161.232 109.469 160.49 109.032 159.622C108.595 158.753 108.389 157.787 108.432 156.816C108.575 155.264 108.97 153.745 109.6 152.32C109.6 152.32 103.48 148.32 101.856 148.32C101.856 148.32 102.728 154.192 101.608 156.56C101.241 157.296 100.642 157.892 99.9038 158.256C101.383 162.238 103.387 166.005 105.864 169.456C108.112 172.28 109.208 166.328 110.928 161.776Z" fill="#F5F0E6" stroke="#263238" stroke-width="0.8" stroke-linecap="round" stroke-linejoin="round"/>
<path d="M92.0398 160.496C90.5132 160.757 89.0681 161.368 87.8185 162.283C86.569 163.198 85.5492 164.391 84.8398 165.768C82.3758 170.52 71.6078 192.088 72.5278 193.376C77.7598 200.736 96.7918 206.032 98.7278 207.968C100.663 209.992 102.788 211.827 105.072 213.448C107.008 214.68 110.872 214.152 111.576 213.8C112.28 213.448 112.808 211.864 111.576 211.864C111.105 211.87 110.647 211.715 110.277 211.423C109.907 211.132 109.648 210.723 109.544 210.264C109.368 209.56 111.48 210.968 112.536 210.44C113.592 209.912 110.176 207.984 109.12 207.104C108.064 206.224 107.184 205 105.776 205C104.368 205 101.72 205 101.72 205C101.72 205 95.2398 200.304 91.3198 196.808C88.2696 194.056 84.9425 191.627 81.3918 189.56L93.2718 170.016" fill="#F5F0E6"/>
<path d="M92.0398 160.496C90.5132 160.757 89.0681 161.368 87.8185 162.283C86.569 163.198 85.5492 164.391 84.8398 165.768C82.3758 170.52 71.6078 192.088 72.5278 193.376C77.7598 200.736 96.7918 206.032 98.7278 207.968C100.663 209.992 102.788 211.827 105.072 213.448C107.008 214.68 110.872 214.152 111.576 213.8C112.28 213.448 112.808 211.864 111.576 211.864C111.105 211.87 110.647 211.715 110.277 211.423C109.907 211.132 109.648 210.723 109.544 210.264C109.368 209.56 111.48 210.968 112.536 210.44C113.592 209.912 110.176 207.984 109.12 207.104C108.064 206.224 107.184 205 105.776 205C104.368 205 101.72 205 101.72 205C101.72 205 95.2398 200.304 91.3198 196.808C88.2696 194.056 84.9425 191.627 81.3918 189.56L93.2718 170.016" stroke="#263238" stroke-width="0.8" stroke-linecap="round" stroke-linejoin="round"/>
<path d="M109.112 207.112C108.056 206.232 107.176 205.008 105.768 205.008C104.36 205.008 101.712 205.008 101.712 205.008C101.712 205.008 95.2316 200.312 91.3116 196.816C88.2614 194.064 84.9343 191.635 81.3836 189.568L86.1356 181.744C83.7062 180.274 80.9272 179.481 78.0876 179.448C74.8876 186.12 72.0156 192.712 72.4876 193.408C77.7196 200.768 96.7516 206.064 98.6876 208C100.623 210.024 102.747 211.859 105.032 213.48C106.968 214.712 110.832 214.184 111.536 213.832C112.24 213.48 112.768 211.896 111.536 211.896C111.065 211.902 110.606 211.747 110.237 211.456C109.867 211.164 109.608 210.755 109.504 210.296C109.328 209.592 111.44 211 112.496 210.472C113.552 209.944 110.168 208 109.112 207.112Z" fill="#F5F0E6" stroke="#263238" stroke-width="0.8" stroke-linecap="round" stroke-linejoin="round"/>
<path d="M115.552 139.704C114.928 138.456 114.928 137.456 115.176 135.704C115.424 133.952 113.928 129.704 113.928 129.704C112.4 132.344 107.984 133.912 106.032 134.504C103.88 135.16 107.024 136.648 106.688 138.64C106.352 140.632 102.056 141.784 102.056 141.784C102.056 141.784 100.8 139.2 99.056 139.2C97.312 139.2 96.072 143.2 97.064 145.32C97.3225 145.907 97.7728 146.389 98.3411 146.687C98.9093 146.985 99.562 147.081 100.192 146.96C100.192 146.96 100.072 150.712 102.44 151.832C104.967 153.037 107.603 153.999 110.312 154.704C111.808 154.952 113.304 154.208 113.928 151.96C114.416 149.694 114.75 147.398 114.928 145.088C115.976 144.402 116.939 143.597 117.8 142.688C118.4 141.824 116.176 140.952 115.552 139.704Z" fill="#F5F0E6" stroke="#263238" stroke-width="0.8" stroke-linecap="round" stroke-linejoin="round"/>
<path d="M113.12 139.76C113.12 140.448 112.896 141 112.624 141C112.352 141 112.128 140.448 112.128 139.76C112.128 139.072 112.352 138.52 112.624 138.52C112.896 138.52 113.12 139.072 113.12 139.76Z" fill="#263238"/>
<path d="M110.968 137.696C110.968 137.696 112.296 136.2 113.288 136.536" stroke="#263238" stroke-width="0.8" stroke-linecap="round" stroke-linejoin="round"/>
<path d="M113.288 147.952C112.688 148.133 112.052 148.154 111.441 148.014C110.831 147.873 110.268 147.576 109.808 147.152" stroke="#263238" stroke-width="0.8" stroke-linecap="round" stroke-linejoin="round"/>
<path d="M66.1041 303.792C66.1041 303.792 63.1201 309.776 63.2321 310.592C63.3441 311.408 69.2641 315.696 72.0321 317.2C74.8001 318.704 79.8081 318.944 79.4561 316.856C79.1041 314.768 74.3521 313.376 73.1921 310.24C72.5743 308.618 72.0403 306.965 71.5921 305.288C69.6583 305.317 67.7558 304.798 66.1041 303.792Z" fill="#F5F0E6" stroke="#263238" stroke-width="0.8" stroke-linecap="round" stroke-linejoin="round"/>
<path d="M79.4716 316.888C77.3417 317.174 75.1743 316.866 73.2076 316C68.9116 314.136 64.7516 310.328 63.6076 309.248C63.4045 309.68 63.2747 310.142 63.2236 310.616C63.3436 311.416 69.2556 315.72 72.0236 317.224C74.7916 318.728 79.7596 318.936 79.4716 316.888Z" fill="#F5F0E6" stroke="#263238" stroke-width="0.8" stroke-linecap="round" stroke-linejoin="round"/>
</svg>
