<svg width="400" height="400" viewBox="0 0 400 400" fill="none" xmlns="http://www.w3.org/2000/svg">
<path d="M173.64 80.6321H186.928" stroke="#263238" stroke-width="1.6" stroke-miterlimit="10"/>
<path d="M179.872 78.1361L177.792 84.3681C177.792 84.3681 115.496 91.0161 110.096 81.8721C104.696 72.7281 113.84 69.4161 135.432 72.7361C157.024 76.0561 179.872 78.1361 179.872 78.1361Z" fill="white" stroke="#263238" stroke-width="0.8" stroke-miterlimit="10"/>
<path d="M227.36 80.6321H214.072" stroke="#263238" stroke-width="1.6" stroke-miterlimit="10"/>
<path d="M221.128 78.1361L223.208 84.3681C223.208 84.3681 285.504 91.0161 290.896 81.8721C296.288 72.7281 287.2 69.4161 265.6 72.7361C244 76.0561 221.128 78.1361 221.128 78.1361Z" fill="white" stroke="#263238" stroke-width="0.8" stroke-miterlimit="10"/>
<path d="M192.8 92.84C192.8 92.84 190.456 106.256 194.672 107.52C198.888 108.784 208.944 108.504 211.744 104.76C214.544 101.016 212.664 97.272 209.56 91.64C206.456 86.008 198.304 85.672 192.8 92.84Z" fill="white" stroke="#263238" stroke-width="0.8" stroke-miterlimit="10"/>
<path d="M198.592 40.7681V82.8241H202.376V42.6641" fill="white"/>
<path d="M198.592 40.7681V82.8241H202.376V42.6641" stroke="#263238" stroke-width="0.8" stroke-miterlimit="10"/>
<path d="M189.16 85.4C196.734 87.8 204.866 87.8 212.44 85.4H218.4V80C218.4 76 210.52 72.8 200.8 72.8C191.08 72.8 183.2 76 183.2 80V85.4H189.16Z" fill="white" stroke="#263238" stroke-width="0.8" stroke-miterlimit="10"/>
<path d="M200.8 92.6C210.52 92.6 218.4 89.3764 218.4 85.4C218.4 81.4235 210.52 78.2 200.8 78.2C191.08 78.2 183.2 81.4235 183.2 85.4C183.2 89.3764 191.08 92.6 200.8 92.6Z" fill="white" stroke="#263238" stroke-width="0.8" stroke-miterlimit="10"/>
<path d="M200.8 92.6C210.52 92.6 218.4 89.3764 218.4 85.4C218.4 81.4235 210.52 78.2 200.8 78.2C191.08 78.2 183.2 81.4235 183.2 85.4C183.2 89.3764 191.08 92.6 200.8 92.6Z" fill="white" stroke="#263238" stroke-width="0.8" stroke-miterlimit="10"/>
<path d="M263.344 228.688H251.976V260.48H263.344V228.688Z" fill="#A8A8A8"/>
<path d="M260.504 231.296H254.824V250.192H260.504V231.296Z" fill="#8C8C8C"/>
<path d="M257.664 257.712C258.596 257.712 259.352 256.956 259.352 256.024C259.352 255.092 258.596 254.336 257.664 254.336C256.732 254.336 255.976 255.092 255.976 256.024C255.976 256.956 256.732 257.712 257.664 257.712Z" fill="#8C8C8C"/>
<path d="M279.576 228.688H268.208V260.48H279.576V228.688Z" fill="#8C8C8C"/>
<path d="M276.728 231.296H271.048V250.192H276.728V231.296Z" fill="#A8A8A8"/>
<path d="M273.896 257.712C274.828 257.712 275.584 256.956 275.584 256.024C275.584 255.092 274.828 254.336 273.896 254.336C272.964 254.336 272.208 255.092 272.208 256.024C272.208 256.956 272.964 257.712 273.896 257.712Z" fill="#A8A8A8"/>
<path d="M295.808 228.688H284.44V260.48H295.808V228.688Z" fill="#8C8C8C"/>
<path d="M292.96 231.296H287.28V250.192H292.96V231.296Z" fill="#A8A8A8"/>
<path d="M291.816 256C291.816 255.664 291.716 255.336 291.53 255.057C291.343 254.778 291.078 254.561 290.767 254.433C290.457 254.304 290.115 254.271 289.786 254.337C289.457 254.403 289.155 254.566 288.918 254.804C288.681 255.042 288.52 255.345 288.456 255.674C288.391 256.004 288.426 256.345 288.555 256.655C288.685 256.965 288.904 257.229 289.184 257.414C289.464 257.6 289.792 257.698 290.128 257.696C290.576 257.694 291.006 257.514 291.322 257.197C291.639 256.879 291.816 256.449 291.816 256Z" fill="#A8A8A8"/>
<path d="M312.04 228.688H300.672V260.48H312.04V228.688Z" fill="#A8A8A8"/>
<path d="M309.192 231.296H303.512V250.192H309.192V231.296Z" fill="#8C8C8C"/>
<path d="M308.048 256C308.048 255.665 307.949 255.337 307.762 255.058C307.576 254.779 307.311 254.561 307.001 254.433C306.691 254.305 306.35 254.271 306.021 254.337C305.692 254.402 305.39 254.564 305.153 254.801C304.916 255.038 304.754 255.34 304.689 255.669C304.623 255.998 304.657 256.339 304.785 256.649C304.913 256.959 305.131 257.224 305.41 257.41C305.689 257.596 306.017 257.696 306.352 257.696C306.802 257.696 307.233 257.517 307.551 257.199C307.869 256.881 308.048 256.45 308.048 256Z" fill="#8C8C8C"/>
<path d="M330.52 147.672V145.368H326.216V136.8H322.84V145.368H247.272V136.8H243.896V145.368H238.208V147.672H243.896V183.608H238.208V185.912H243.896V221.856H238.208V224.16H243.896V260.096H238.208V262.4H243.896V301.744H247.272V262.4H322.84V301.744H326.216V262.4H330.52V260.096H326.216V224.16H330.52V221.856H326.216V185.912H330.52V183.608H326.216V147.672H330.52ZM322.84 260.096H247.272V224.16H322.84V260.096ZM322.84 221.856H247.272V185.912H322.84V221.856ZM322.84 183.608H247.272V147.672H322.84V183.608Z" fill="#A8A8A8"/>
<path d="M302.08 151.816H290.712V183.608H302.08V151.816Z" fill="#8C8C8C"/>
<path d="M299.232 154.424H293.552V173.32H299.232V154.424Z" fill="#8C8C8C"/>
<path d="M298.088 179.152C298.088 178.816 297.988 178.488 297.802 178.209C297.615 177.93 297.35 177.713 297.039 177.584C296.729 177.456 296.387 177.423 296.058 177.489C295.729 177.555 295.427 177.718 295.19 177.956C294.953 178.194 294.792 178.497 294.728 178.826C294.663 179.156 294.698 179.497 294.827 179.807C294.957 180.116 295.176 180.381 295.456 180.566C295.736 180.751 296.064 180.85 296.4 180.848C296.848 180.846 297.278 180.666 297.594 180.348C297.91 180.031 298.088 179.6 298.088 179.152Z" fill="#8C8C8C"/>
<path d="M288.744 151.816H277.376V183.608H288.744V151.816Z" fill="#8C8C8C"/>
<path d="M285.904 154.424H280.224V173.32H285.904V154.424Z" fill="#8C8C8C"/>
<path d="M283.064 180.84C283.996 180.84 284.752 180.084 284.752 179.152C284.752 178.22 283.996 177.464 283.064 177.464C282.132 177.464 281.376 178.22 281.376 179.152C281.376 180.084 282.132 180.84 283.064 180.84Z" fill="#8C8C8C"/>
<path d="M275.416 151.816H264.048V183.608H275.416V151.816Z" fill="#A8A8A8"/>
<path d="M272.568 154.424H266.888V173.32H272.568V154.424Z" fill="#8C8C8C"/>
<path d="M269.728 180.84C270.66 180.84 271.416 180.084 271.416 179.152C271.416 178.22 270.66 177.464 269.728 177.464C268.796 177.464 268.04 178.22 268.04 179.152C268.04 180.084 268.796 180.84 269.728 180.84Z" fill="#8C8C8C"/>
<path d="M317.744 151.816H306.376V183.608H317.744V151.816Z" fill="#8C8C8C"/>
<path d="M314.904 154.424H309.224V173.32H314.904V154.424Z" fill="#8C8C8C"/>
<path d="M312.064 180.84C312.996 180.84 313.752 180.084 313.752 179.152C313.752 178.22 312.996 177.464 312.064 177.464C311.132 177.464 310.376 178.22 310.376 179.152C310.376 180.084 311.132 180.84 312.064 180.84Z" fill="#8C8C8C"/>
<path d="M261.216 151.816H249.848V183.608H261.216V151.816Z" fill="#A8A8A8"/>
<path d="M258.368 154.424H252.688V173.32H258.368V154.424Z" fill="#8C8C8C"/>
<path d="M255.528 180.84C256.46 180.84 257.216 180.084 257.216 179.152C257.216 178.22 256.46 177.464 255.528 177.464C254.596 177.464 253.84 178.22 253.84 179.152C253.84 180.084 254.596 180.84 255.528 180.84Z" fill="#8C8C8C"/>
<path d="M307.032 135.496H272.864C274.007 136.83 274.614 138.54 274.568 140.296C274.611 142.051 274.004 143.761 272.864 145.096H307.032C308.305 145.096 309.526 144.59 310.426 143.69C311.326 142.79 311.832 141.569 311.832 140.296C311.832 139.023 311.326 137.802 310.426 136.902C309.526 136.002 308.305 135.496 307.032 135.496Z" fill="#D4D4D4" stroke="white" stroke-width="0.8" stroke-miterlimit="10"/>
<path d="M308.376 135.688V144.8C309.361 144.505 310.225 143.903 310.841 143.08C311.457 142.258 311.793 141.26 311.8 140.232C311.788 139.208 311.45 138.215 310.834 137.398C310.218 136.581 309.357 135.981 308.376 135.688Z" fill="#9C9C9C" stroke="white" stroke-width="0.8" stroke-miterlimit="10"/>
<path d="M307.032 125.36H272.864C274.004 126.695 274.611 128.405 274.568 130.16C274.611 131.915 274.004 133.625 272.864 134.96H307.032C308.305 134.96 309.526 134.454 310.426 133.554C311.326 132.654 311.832 131.433 311.832 130.16C311.832 128.887 311.326 127.666 310.426 126.766C309.526 125.866 308.305 125.36 307.032 125.36Z" fill="#D4D4D4" stroke="white" stroke-width="0.8" stroke-miterlimit="10"/>
<path d="M308.376 125.552V134.704C309.362 134.409 310.227 133.805 310.843 132.981C311.46 132.157 311.795 131.157 311.8 130.128C311.795 129.099 311.46 128.099 310.843 127.275C310.227 126.451 309.362 125.847 308.376 125.552Z" fill="#9C9C9C" stroke="white" stroke-width="0.8" stroke-miterlimit="10"/>
<path d="M272.416 112.352H261.048V144.144H272.416V112.352Z" fill="#A8A8A8"/>
<path d="M269.568 114.96H263.888V133.856H269.568V114.96Z" fill="#A8A8A8"/>
<path d="M268.416 139.688C268.416 139.354 268.317 139.028 268.132 138.75C267.946 138.473 267.682 138.256 267.374 138.128C267.066 138.001 266.726 137.967 266.399 138.032C266.071 138.098 265.771 138.258 265.534 138.494C265.298 138.73 265.138 139.031 265.072 139.359C265.007 139.686 265.041 140.026 265.169 140.334C265.296 140.642 265.513 140.906 265.79 141.092C266.068 141.277 266.394 141.376 266.728 141.376C266.95 141.377 267.17 141.334 267.375 141.25C267.581 141.165 267.767 141.041 267.924 140.884C268.081 140.727 268.205 140.54 268.29 140.335C268.374 140.13 268.417 139.91 268.416 139.688Z" fill="#A8A8A8"/>
<path d="M317.744 189.752H306.376V221.544H317.744V189.752Z" fill="#A8A8A8"/>
<path d="M314.904 192.368H309.224V211.264H314.904V192.368Z" fill="#8C8C8C"/>
<path d="M313.752 217.096C313.752 216.762 313.653 216.436 313.468 216.158C313.282 215.881 313.018 215.664 312.71 215.536C312.402 215.409 312.062 215.375 311.735 215.44C311.407 215.506 311.106 215.666 310.87 215.902C310.634 216.138 310.474 216.439 310.408 216.767C310.343 217.094 310.377 217.433 310.504 217.742C310.632 218.05 310.849 218.314 311.126 218.499C311.404 218.685 311.73 218.784 312.064 218.784C312.511 218.782 312.939 218.603 313.255 218.287C313.571 217.971 313.75 217.543 313.752 217.096Z" fill="#8C8C8C"/>
<path d="M304.568 189.752H293.2V221.544H304.568V189.752Z" fill="#A8A8A8"/>
<path d="M301.72 192.368H296.04V211.264H301.72V192.368Z" fill="#8C8C8C"/>
<path d="M300.568 217.096C300.568 216.762 300.469 216.436 300.284 216.158C300.098 215.881 299.835 215.664 299.526 215.536C299.218 215.409 298.878 215.375 298.551 215.44C298.223 215.506 297.923 215.666 297.687 215.902C297.45 216.138 297.29 216.439 297.225 216.767C297.159 217.094 297.193 217.433 297.321 217.742C297.448 218.05 297.665 218.314 297.942 218.499C298.22 218.685 298.546 218.784 298.88 218.784C299.102 218.784 299.321 218.74 299.526 218.655C299.731 218.571 299.917 218.446 300.074 218.29C300.23 218.133 300.355 217.947 300.44 217.742C300.524 217.537 300.568 217.318 300.568 217.096Z" fill="#8C8C8C"/>
<path d="M277.368 189.752H266V221.544H277.368V189.752Z" fill="#A8A8A8"/>
<path d="M274.52 192.368H268.84V211.264H274.52V192.368Z" fill="#8C8C8C"/>
<path d="M273.368 217.096C273.368 216.762 273.269 216.436 273.083 216.158C272.898 215.881 272.634 215.664 272.326 215.536C272.017 215.409 271.678 215.375 271.351 215.44C271.023 215.506 270.722 215.666 270.486 215.902C270.25 216.138 270.09 216.439 270.024 216.767C269.959 217.094 269.993 217.433 270.12 217.742C270.248 218.05 270.465 218.314 270.742 218.499C271.02 218.685 271.346 218.784 271.68 218.784C271.902 218.784 272.121 218.74 272.326 218.655C272.531 218.571 272.717 218.446 272.874 218.29C273.03 218.133 273.155 217.947 273.239 217.742C273.324 217.537 273.368 217.318 273.368 217.096Z" fill="#8C8C8C"/>
<path d="M291.384 189.752H280.016V221.544H291.384V189.752Z" fill="#A8A8A8"/>
<path d="M288.536 192.368H282.856V211.264H288.536V192.368Z" fill="#8C8C8C"/>
<path d="M287.384 217.096C287.384 216.762 287.285 216.436 287.1 216.158C286.914 215.881 286.65 215.664 286.342 215.536C286.034 215.409 285.694 215.375 285.367 215.44C285.039 215.506 284.739 215.666 284.502 215.902C284.266 216.138 284.106 216.439 284.04 216.767C283.975 217.094 284.009 217.433 284.137 217.742C284.264 218.05 284.481 218.314 284.758 218.499C285.036 218.685 285.362 218.784 285.696 218.784C285.918 218.784 286.137 218.74 286.342 218.655C286.547 218.571 286.733 218.446 286.89 218.29C287.046 218.133 287.171 217.947 287.256 217.742C287.34 217.537 287.384 217.318 287.384 217.096Z" fill="#8C8C8C"/>
<path d="M171.888 228.688H160.52V260.48H171.888V228.688Z" fill="#A8A8A8"/>
<path d="M169.04 231.296H163.36V250.192H169.04V231.296Z" fill="#A8A8A8"/>
<path d="M166.2 257.712C167.132 257.712 167.888 256.956 167.888 256.024C167.888 255.092 167.132 254.336 166.2 254.336C165.268 254.336 164.512 255.092 164.512 256.024C164.512 256.956 165.268 257.712 166.2 257.712Z" fill="#A8A8A8"/>
<path d="M188.112 228.688H176.744V260.48H188.112V228.688Z" fill="#A8A8A8"/>
<path d="M185.272 231.296H179.592V250.192H185.272V231.296Z" fill="#A8A8A8"/>
<path d="M182.432 257.712C183.364 257.712 184.12 256.956 184.12 256.024C184.12 255.092 183.364 254.336 182.432 254.336C181.5 254.336 180.744 255.092 180.744 256.024C180.744 256.956 181.5 257.712 182.432 257.712Z" fill="#A8A8A8"/>
<path d="M204.344 228.688H192.976V260.48H204.344V228.688Z" fill="#A8A8A8"/>
<path d="M201.504 231.296H195.824V250.192H201.504V231.296Z" fill="#A8A8A8"/>
<path d="M198.664 257.712C199.596 257.712 200.352 256.956 200.352 256.024C200.352 255.092 199.596 254.336 198.664 254.336C197.732 254.336 196.976 255.092 196.976 256.024C196.976 256.956 197.732 257.712 198.664 257.712Z" fill="#A8A8A8"/>
<path d="M220.576 228.688H209.208V260.48H220.576V228.688Z" fill="#A8A8A8"/>
<path d="M217.728 231.296H212.048V250.192H217.728V231.296Z" fill="#A8A8A8"/>
<path d="M216.584 256C216.584 255.664 216.484 255.336 216.298 255.057C216.111 254.778 215.846 254.561 215.535 254.433C215.225 254.304 214.884 254.271 214.554 254.337C214.225 254.403 213.923 254.566 213.686 254.804C213.449 255.042 213.288 255.345 213.224 255.674C213.159 256.004 213.194 256.345 213.324 256.655C213.453 256.965 213.672 257.229 213.952 257.414C214.232 257.6 214.56 257.698 214.896 257.696C215.345 257.694 215.774 257.514 216.09 257.197C216.407 256.879 216.584 256.449 216.584 256Z" fill="#A8A8A8"/>
<path d="M155.808 136.8H152.432V301.744H155.808V136.8Z" fill="#A8A8A8"/>
<path d="M234.752 136.8H231.376V301.744H234.752V136.8Z" fill="#A8A8A8"/>
<path d="M239.056 145.368H146.744V147.672H239.056V145.368Z" fill="#A8A8A8"/>
<path d="M239.056 183.608H146.744V185.912H239.056V183.608Z" fill="#A8A8A8"/>
<path d="M239.056 221.856H146.744V224.16H239.056V221.856Z" fill="#A8A8A8"/>
<path d="M239.056 260.096H146.744V262.4H239.056V260.096Z" fill="#A8A8A8"/>
<path d="M210.616 151.816H199.248V183.608H210.616V151.816Z" fill="#A8A8A8"/>
<path d="M207.768 154.424H202.088V173.32H207.768V154.424Z" fill="#A8A8A8"/>
<path d="M206.624 179.152C206.624 178.816 206.524 178.488 206.338 178.209C206.151 177.93 205.886 177.713 205.575 177.584C205.265 177.456 204.924 177.423 204.594 177.489C204.265 177.555 203.963 177.718 203.726 177.956C203.489 178.194 203.328 178.497 203.264 178.826C203.199 179.156 203.234 179.497 203.364 179.807C203.493 180.116 203.712 180.381 203.992 180.566C204.272 180.751 204.6 180.85 204.936 180.848C205.385 180.846 205.814 180.666 206.13 180.348C206.447 180.031 206.624 179.6 206.624 179.152Z" fill="#A8A8A8"/>
<path d="M197.288 151.816H185.92V183.608H197.288V151.816Z" fill="#A8A8A8"/>
<path d="M194.44 154.424H188.76V173.32H194.44V154.424Z" fill="#8C8C8C"/>
<path d="M191.6 180.84C192.532 180.84 193.288 180.084 193.288 179.152C193.288 178.22 192.532 177.464 191.6 177.464C190.668 177.464 189.912 178.22 189.912 179.152C189.912 180.084 190.668 180.84 191.6 180.84Z" fill="#8C8C8C"/>
<path d="M183.952 151.816H172.584V183.608H183.952V151.816Z" fill="#A8A8A8"/>
<path d="M181.104 154.424H175.424V173.32H181.104V154.424Z" fill="#8C8C8C"/>
<path d="M178.264 180.84C179.196 180.84 179.952 180.084 179.952 179.152C179.952 178.22 179.196 177.464 178.264 177.464C177.332 177.464 176.576 178.22 176.576 179.152C176.576 180.084 177.332 180.84 178.264 180.84Z" fill="#8C8C8C"/>
<path d="M226.288 151.816H214.92V183.608H226.288V151.816Z" fill="#A8A8A8"/>
<path d="M223.44 154.424H217.76V173.32H223.44V154.424Z" fill="#8C8C8C"/>
<path d="M220.6 180.84C221.532 180.84 222.288 180.084 222.288 179.152C222.288 178.22 221.532 177.464 220.6 177.464C219.668 177.464 218.912 178.22 218.912 179.152C218.912 180.084 219.668 180.84 220.6 180.84Z" fill="#A8A8A8"/>
<path d="M169.752 151.816H158.384V183.608H169.752V151.816Z" fill="#A8A8A8"/>
<path d="M166.904 154.424H161.224V173.32H166.904V154.424Z" fill="#8C8C8C"/>
<path d="M164.064 180.84C164.996 180.84 165.752 180.084 165.752 179.152C165.752 178.22 164.996 177.464 164.064 177.464C163.132 177.464 162.376 178.22 162.376 179.152C162.376 180.084 163.132 180.84 164.064 180.84Z" fill="#8C8C8C"/>
<path d="M169.752 113.416H158.384V145.208H169.752V113.416Z" fill="#A8A8A8"/>
<path d="M166.904 116.024H161.224V134.92H166.904V116.024Z" fill="#8C8C8C"/>
<path d="M164.064 142.44C164.996 142.44 165.752 141.684 165.752 140.752C165.752 139.82 164.996 139.064 164.064 139.064C163.132 139.064 162.376 139.82 162.376 140.752C162.376 141.684 163.132 142.44 164.064 142.44Z" fill="#8C8C8C"/>
<path d="M182.24 113.416H170.872V145.208H182.24V113.416Z" fill="#A8A8A8"/>
<path d="M179.4 116.024H173.72V134.92H179.4V116.024Z" fill="#8C8C8C"/>
<path d="M176.56 142.44C177.492 142.44 178.248 141.684 178.248 140.752C178.248 139.82 177.492 139.064 176.56 139.064C175.628 139.064 174.872 139.82 174.872 140.752C174.872 141.684 175.628 142.44 176.56 142.44Z" fill="#8C8C8C"/>
<path d="M214.496 145.84V134.472H182.704V145.84H214.496Z" fill="#A8A8A8"/>
<path d="M211.888 142.992V137.312H193V142.992H211.888Z" fill="#8C8C8C"/>
<path d="M187.2 141.84C187.534 141.84 187.86 141.741 188.138 141.556C188.415 141.37 188.632 141.107 188.759 140.798C188.887 140.49 188.921 140.15 188.856 139.823C188.79 139.495 188.63 139.195 188.394 138.959C188.157 138.722 187.857 138.562 187.529 138.497C187.202 138.431 186.862 138.465 186.554 138.593C186.246 138.72 185.982 138.937 185.796 139.214C185.611 139.492 185.512 139.818 185.512 140.152C185.514 140.599 185.693 141.027 186.009 141.343C186.325 141.659 186.753 141.838 187.2 141.84Z" fill="#8C8C8C"/>
<path d="M226.288 189.752H214.92V221.544H226.288V189.752Z" fill="#A8A8A8"/>
<path d="M223.44 192.368H217.76V211.264H223.44V192.368Z" fill="#A8A8A8"/>
<path d="M222.288 217.096C222.288 216.762 222.189 216.436 222.004 216.158C221.818 215.881 221.555 215.664 221.246 215.536C220.938 215.409 220.598 215.375 220.271 215.44C219.943 215.506 219.643 215.666 219.407 215.902C219.17 216.138 219.01 216.439 218.945 216.767C218.879 217.094 218.913 217.433 219.041 217.742C219.168 218.05 219.385 218.314 219.662 218.499C219.94 218.685 220.266 218.784 220.6 218.784C220.822 218.784 221.041 218.74 221.246 218.655C221.451 218.571 221.637 218.446 221.794 218.29C221.95 218.133 222.075 217.947 222.16 217.742C222.244 217.537 222.288 217.318 222.288 217.096Z" fill="#A8A8A8"/>
<path d="M213.104 189.752H201.736V221.544H213.104V189.752Z" fill="#A8A8A8"/>
<path d="M210.256 192.368H204.576V211.264H210.256V192.368Z" fill="#A8A8A8"/>
<path d="M209.104 217.096C209.104 216.762 209.005 216.436 208.82 216.158C208.634 215.881 208.37 215.664 208.062 215.536C207.754 215.409 207.414 215.375 207.087 215.44C206.759 215.506 206.459 215.666 206.222 215.902C205.986 216.138 205.826 216.439 205.76 216.767C205.695 217.094 205.729 217.433 205.857 217.742C205.984 218.05 206.201 218.314 206.478 218.499C206.756 218.685 207.082 218.784 207.416 218.784C207.638 218.784 207.857 218.74 208.062 218.655C208.267 218.571 208.453 218.446 208.61 218.29C208.766 218.133 208.891 217.947 208.976 217.742C209.06 217.537 209.104 217.318 209.104 217.096Z" fill="#A8A8A8"/>
<path d="M185.904 189.752H174.536V221.544H185.904V189.752Z" fill="#A8A8A8"/>
<path d="M183.056 192.368H177.376V211.264H183.056V192.368Z" fill="#A8A8A8"/>
<path d="M181.904 217.096C181.904 216.762 181.805 216.436 181.62 216.158C181.434 215.881 181.17 215.664 180.862 215.536C180.554 215.409 180.214 215.375 179.887 215.44C179.559 215.506 179.259 215.666 179.022 215.902C178.786 216.138 178.626 216.439 178.561 216.767C178.495 217.094 178.529 217.433 178.657 217.742C178.784 218.05 179.001 218.314 179.278 218.499C179.556 218.685 179.882 218.784 180.216 218.784C180.438 218.784 180.657 218.74 180.862 218.655C181.067 218.571 181.253 218.446 181.41 218.29C181.566 218.133 181.691 217.947 181.776 217.742C181.86 217.537 181.904 217.318 181.904 217.096Z" fill="#A8A8A8"/>
<path d="M199.92 189.752H188.552V221.544H199.92V189.752Z" fill="#A8A8A8"/>
<path d="M197.072 192.368H191.392V211.264H197.072V192.368Z" fill="#A8A8A8"/>
<path d="M195.92 217.096C195.92 216.762 195.821 216.436 195.636 216.158C195.45 215.881 195.187 215.664 194.878 215.536C194.57 215.409 194.23 215.375 193.903 215.44C193.575 215.506 193.275 215.666 193.039 215.902C192.803 216.138 192.642 216.439 192.577 216.767C192.511 217.094 192.545 217.433 192.673 217.742C192.8 218.05 193.017 218.314 193.294 218.499C193.572 218.685 193.898 218.784 194.232 218.784C194.454 218.784 194.673 218.74 194.878 218.655C195.083 218.571 195.269 218.446 195.426 218.29C195.583 218.133 195.707 217.947 195.792 217.742C195.877 217.537 195.92 217.318 195.92 217.096Z" fill="#A8A8A8"/>
<path d="M79.7681 228.688H68.4001V260.48H79.7681V228.688Z" fill="#A8A8A8"/>
<path d="M76.92 231.296H71.24V250.192H76.92V231.296Z" fill="#8C8C8C"/>
<path d="M74.0881 257.712C75.0204 257.712 75.7761 256.956 75.7761 256.024C75.7761 255.092 75.0204 254.336 74.0881 254.336C73.1559 254.336 72.4001 255.092 72.4001 256.024C72.4001 256.956 73.1559 257.712 74.0881 257.712Z" fill="#8C8C8C"/>
<path d="M96.0001 228.688H84.6321V260.48H96.0001V228.688Z" fill="#A8A8A8"/>
<path d="M93.1522 231.296H87.4722V250.192H93.1522V231.296Z" fill="#8C8C8C"/>
<path d="M90.3201 257.712C91.2523 257.712 92.0081 256.956 92.0081 256.024C92.0081 255.092 91.2523 254.336 90.3201 254.336C89.3878 254.336 88.6321 255.092 88.6321 256.024C88.6321 256.956 89.3878 257.712 90.3201 257.712Z" fill="#8C8C8C"/>
<path d="M112.232 228.688H100.864V260.48H112.232V228.688Z" fill="#8C8C8C"/>
<path d="M109.384 231.296H103.704V250.192H109.384V231.296Z" fill="#A8A8A8"/>
<path d="M106.544 257.712C107.476 257.712 108.232 256.956 108.232 256.024C108.232 255.092 107.476 254.336 106.544 254.336C105.612 254.336 104.856 255.092 104.856 256.024C104.856 256.956 105.612 257.712 106.544 257.712Z" fill="#A8A8A8"/>
<path d="M128.464 228.688H117.096V260.48H128.464V228.688Z" fill="#A8A8A8"/>
<path d="M125.616 231.296H119.936V250.192H125.616V231.296Z" fill="#8C8C8C"/>
<path d="M122.776 257.712C123.708 257.712 124.464 256.956 124.464 256.024C124.464 255.092 123.708 254.336 122.776 254.336C121.844 254.336 121.088 255.092 121.088 256.024C121.088 256.956 121.844 257.712 122.776 257.712Z" fill="#8C8C8C"/>
<path d="M63.688 136.8H60.312V301.744H63.688V136.8Z" fill="#A8A8A8"/>
<path d="M142.64 136.8H139.264V301.744H142.64V136.8Z" fill="#A8A8A8"/>
<path d="M146.944 145.368H54.6321V147.672H146.944V145.368Z" fill="#A8A8A8"/>
<path d="M146.944 183.608H54.6321V185.912H146.944V183.608Z" fill="#A8A8A8"/>
<path d="M146.944 221.856H54.6321V224.16H146.944V221.856Z" fill="#A8A8A8"/>
<path d="M146.944 260.096H54.6321V262.4H146.944V260.096Z" fill="#A8A8A8"/>
<path d="M118.504 151.816H107.136V183.608H118.504V151.816Z" fill="#8C8C8C"/>
<path d="M115.656 154.424H109.976V173.32H115.656V154.424Z" fill="#A8A8A8"/>
<path d="M114.512 179.152C114.512 178.817 114.413 178.489 114.226 178.21C114.04 177.931 113.775 177.714 113.465 177.585C113.155 177.457 112.814 177.423 112.485 177.489C112.156 177.554 111.854 177.716 111.617 177.953C111.38 178.19 111.218 178.492 111.153 178.821C111.087 179.15 111.121 179.491 111.249 179.801C111.378 180.111 111.595 180.376 111.874 180.562C112.153 180.749 112.481 180.848 112.816 180.848C113.266 180.848 113.697 180.669 114.015 180.351C114.333 180.033 114.512 179.602 114.512 179.152Z" fill="#A8A8A8"/>
<path d="M105.168 151.816H93.8V183.608H105.168V151.816Z" fill="#A8A8A8"/>
<path d="M102.32 154.424H96.6401V173.32H102.32V154.424Z" fill="#8C8C8C"/>
<path d="M99.488 180.84C100.42 180.84 101.176 180.084 101.176 179.152C101.176 178.22 100.42 177.464 99.488 177.464C98.5558 177.464 97.8 178.22 97.8 179.152C97.8 180.084 98.5558 180.84 99.488 180.84Z" fill="#8C8C8C"/>
<path d="M91.8402 151.816H80.4722V183.608H91.8402V151.816Z" fill="#A8A8A8"/>
<path d="M88.992 154.424H83.312V173.32H88.992V154.424Z" fill="#8C8C8C"/>
<path d="M86.1521 180.84C87.0844 180.84 87.8401 180.084 87.8401 179.152C87.8401 178.22 87.0844 177.464 86.1521 177.464C85.2199 177.464 84.4641 178.22 84.4641 179.152C84.4641 180.084 85.2199 180.84 86.1521 180.84Z" fill="#8C8C8C"/>
<path d="M134.168 151.816H122.8V183.608H134.168V151.816Z" fill="#A8A8A8"/>
<path d="M131.32 154.424H125.64V173.32H131.32V154.424Z" fill="#8C8C8C"/>
<path d="M128.488 180.84C129.42 180.84 130.176 180.084 130.176 179.152C130.176 178.22 129.42 177.464 128.488 177.464C127.556 177.464 126.8 178.22 126.8 179.152C126.8 180.084 127.556 180.84 128.488 180.84Z" fill="#8C8C8C"/>
<path d="M101.944 134.256V145.624H133.736V134.256H101.944Z" fill="#A8A8A8"/>
<path d="M104.56 137.096V142.776H123.456V137.096H104.56Z" fill="#8C8C8C"/>
<path d="M129.288 138.248C128.952 138.246 128.624 138.345 128.344 138.53C128.064 138.715 127.845 138.98 127.715 139.289C127.586 139.599 127.551 139.94 127.616 140.27C127.68 140.6 127.841 140.902 128.078 141.14C128.315 141.378 128.617 141.541 128.946 141.607C129.275 141.673 129.617 141.64 129.927 141.512C130.238 141.384 130.503 141.166 130.69 140.887C130.876 140.608 130.976 140.28 130.976 139.944C130.976 139.496 130.798 139.065 130.482 138.748C130.166 138.43 129.736 138.25 129.288 138.248Z" fill="#8C8C8C"/>
<path d="M100.76 123.088V134.456H132.552V123.088H100.76Z" fill="#A8A8A8"/>
<path d="M103.368 125.928V131.608H122.264V125.928H103.368Z" fill="#8C8C8C"/>
<path d="M128.096 127.08C127.762 127.08 127.436 127.179 127.158 127.365C126.881 127.55 126.664 127.814 126.536 128.122C126.409 128.431 126.375 128.77 126.44 129.097C126.506 129.425 126.666 129.726 126.902 129.962C127.138 130.198 127.439 130.359 127.767 130.424C128.094 130.489 128.433 130.455 128.742 130.328C129.05 130.2 129.314 129.983 129.499 129.706C129.685 129.428 129.784 129.102 129.784 128.768C129.785 128.546 129.742 128.326 129.658 128.121C129.573 127.916 129.449 127.729 129.292 127.572C129.135 127.415 128.948 127.291 128.743 127.206C128.538 127.122 128.318 127.079 128.096 127.08Z" fill="#8C8C8C"/>
<path d="M77.64 151.816H66.272V183.608H77.64V151.816Z" fill="#A8A8A8"/>
<path d="M74.7921 154.424H69.1121V173.32H74.7921V154.424Z" fill="#8C8C8C"/>
<path d="M71.9522 180.84C72.8844 180.84 73.6402 180.084 73.6402 179.152C73.6402 178.22 72.8844 177.464 71.9522 177.464C71.0199 177.464 70.2642 178.22 70.2642 179.152C70.2642 180.084 71.0199 180.84 71.9522 180.84Z" fill="#8C8C8C"/>
<path d="M134.168 189.752H122.8V221.544H134.168V189.752Z" fill="#A8A8A8"/>
<path d="M131.32 192.368H125.64V211.264H131.32V192.368Z" fill="#8C8C8C"/>
<path d="M130.176 217.096C130.178 216.76 130.079 216.431 129.894 216.151C129.708 215.871 129.443 215.652 129.133 215.523C128.823 215.393 128.481 215.359 128.151 215.424C127.822 215.489 127.519 215.651 127.281 215.889C127.043 216.127 126.882 216.429 126.816 216.759C126.751 217.089 126.785 217.431 126.915 217.741C127.044 218.051 127.263 218.316 127.543 218.502C127.823 218.687 128.152 218.786 128.488 218.784C128.935 218.782 129.363 218.603 129.679 218.287C129.996 217.971 130.174 217.543 130.176 217.096Z" fill="#8C8C8C"/>
<path d="M120.984 189.752H109.616V221.544H120.984V189.752Z" fill="#8C8C8C"/>
<path d="M118.144 192.368H112.464V211.264H118.144V192.368Z" fill="#A8A8A8"/>
<path d="M116.992 217.096C116.992 216.762 116.893 216.436 116.707 216.158C116.522 215.881 116.258 215.664 115.95 215.536C115.641 215.409 115.302 215.375 114.975 215.44C114.647 215.506 114.346 215.666 114.11 215.902C113.874 216.138 113.714 216.439 113.648 216.767C113.583 217.094 113.617 217.433 113.744 217.742C113.872 218.05 114.089 218.314 114.366 218.499C114.644 218.685 114.97 218.784 115.304 218.784C115.751 218.782 116.179 218.603 116.495 218.287C116.811 217.971 116.99 217.543 116.992 217.096Z" fill="#A8A8A8"/>
<path d="M80.336 189.752H68.968V221.544H80.336V189.752Z" fill="#8C8C8C"/>
<path d="M77.4962 192.368H71.8162V211.264H77.4962V192.368Z" fill="#A8A8A8"/>
<path d="M76.344 217.096C76.344 216.762 76.245 216.436 76.0595 216.158C75.8741 215.881 75.6104 215.664 75.302 215.536C74.9935 215.409 74.6541 215.375 74.3267 215.44C73.9993 215.506 73.6985 215.666 73.4624 215.902C73.2264 216.138 73.0656 216.439 73.0005 216.767C72.9353 217.094 72.9687 217.433 73.0965 217.742C73.2243 218.05 73.4406 218.314 73.7182 218.499C73.9958 218.685 74.3222 218.784 74.656 218.784C75.1031 218.782 75.5312 218.603 75.8473 218.287C76.1634 217.971 76.3419 217.543 76.344 217.096Z" fill="#A8A8A8"/>
<path d="M93.784 189.752H82.416V221.544H93.784V189.752Z" fill="#8C8C8C"/>
<path d="M90.9442 192.368H85.2642V211.264H90.9442V192.368Z" fill="#A8A8A8"/>
<path d="M89.792 217.096C89.792 216.762 89.693 216.436 89.5075 216.158C89.3221 215.881 89.0584 215.664 88.75 215.536C88.4415 215.409 88.1021 215.375 87.7747 215.44C87.4473 215.506 87.1465 215.666 86.9104 215.902C86.6744 216.138 86.5136 216.439 86.4485 216.767C86.3833 217.094 86.4167 217.433 86.5445 217.742C86.6723 218.05 86.8886 218.314 87.1662 218.499C87.4438 218.685 87.7702 218.784 88.104 218.784C88.5511 218.782 88.9792 218.603 89.2953 218.287C89.6114 217.971 89.7899 217.543 89.792 217.096Z" fill="#A8A8A8"/>
<path d="M107.8 189.752H96.4321V221.544H107.8V189.752Z" fill="#8C8C8C"/>
<path d="M104.96 192.368H99.28V211.264H104.96V192.368Z" fill="#A8A8A8"/>
<path d="M103.808 217.096C103.808 216.762 103.709 216.436 103.524 216.158C103.338 215.881 103.075 215.664 102.766 215.536C102.458 215.409 102.118 215.375 101.791 215.44C101.463 215.506 101.163 215.666 100.927 215.902C100.69 216.138 100.53 216.439 100.465 216.767C100.399 217.094 100.433 217.433 100.561 217.742C100.688 218.05 100.905 218.314 101.182 218.499C101.46 218.685 101.786 218.784 102.12 218.784C102.567 218.782 102.995 218.603 103.311 218.287C103.628 217.971 103.806 217.543 103.808 217.096Z" fill="#A8A8A8"/>
<path d="M99.1519 302.064H82.1039L79.5439 273.8H101.712L99.1519 302.064Z" fill="#8DC3F2" stroke="#263238" stroke-width="0.8" stroke-linecap="round" stroke-linejoin="round"/>
<path d="M101.672 272.776H79.576C78.9309 272.776 78.408 273.299 78.408 273.944V274.056C78.408 274.701 78.9309 275.224 79.576 275.224H101.672C102.317 275.224 102.84 274.701 102.84 274.056V273.944C102.84 273.299 102.317 272.776 101.672 272.776Z" fill="white" stroke="#263238" stroke-width="0.8" stroke-linecap="round" stroke-linejoin="round"/>
<path d="M80.624 233.32C80.964 232.555 81.476 231.879 82.12 231.344" stroke="#263238" stroke-width="0.8" stroke-linecap="round" stroke-linejoin="round"/>
<path d="M86.5279 271.248C86.5279 271.248 91.5678 270.408 95.1358 264.528C98.7038 258.648 93.6718 255.728 85.4798 248.776C80.3838 244.464 79.2718 239.576 79.8158 235.976" stroke="#263238" stroke-width="0.8" stroke-linecap="round" stroke-linejoin="round"/>
<path d="M97.256 270.288C99.124 269.124 100.471 267.284 101.016 265.152C102.072 261.152 100.6 256.544 94.72 252.768C88.84 248.992 85.688 247.968 82.96 244.368" stroke="#263238" stroke-width="0.8" stroke-linecap="round" stroke-linejoin="round"/>
<path d="M93.04 271.872C93.968 271.728 94.8723 271.459 95.728 271.072" stroke="#263238" stroke-width="0.8" stroke-linecap="round" stroke-linejoin="round"/>
<path d="M166.752 226.448C162.944 222.2 161.392 217.472 162.544 210.984C164.544 199.784 176.832 187.328 176.832 179.496C176.832 171.664 182.312 153.424 199.056 152.344C215.8 151.264 224.296 159.68 227.856 178.112C231.416 196.544 231.24 199.768 235.384 208.368C237.088 211.912 239.016 215.488 239.72 219.4C241.12 227.16 232.696 230.952 226.736 233.088C210 239.072 189.056 243.024 173.296 232.184C170.893 230.54 168.696 228.614 166.752 226.448Z" fill="#263238" stroke="#263238" stroke-width="0.8" stroke-linecap="round" stroke-linejoin="round"/>
<path d="M227.392 192.36C228.305 192.782 229.259 193.106 230.24 193.328" stroke="white" stroke-width="0.8" stroke-miterlimit="10" stroke-linecap="round"/>
<path d="M204.432 166.92C204.432 166.92 211.032 182.52 218.832 187.624C220.584 188.768 222.12 189.68 223.448 190.416" stroke="white" stroke-width="0.8" stroke-miterlimit="10" stroke-linecap="round"/>
<path d="M194.248 171.728C190.456 178.28 183.232 188.664 173.52 193.024" stroke="white" stroke-width="0.8" stroke-miterlimit="10" stroke-linecap="round"/>
<path d="M197.224 166.016C197.224 166.016 196.76 167.072 195.872 168.776" stroke="white" stroke-width="0.8" stroke-miterlimit="10" stroke-linecap="round"/>
<path d="M179.52 193.328C179.52 193.328 167.2 205.6 168.72 220" stroke="white" stroke-width="0.8" stroke-miterlimit="10" stroke-linecap="round"/>
<path d="M182.824 196C182.824 196 177.12 211.608 178.92 221.512" stroke="white" stroke-width="0.8" stroke-miterlimit="10" stroke-linecap="round"/>
<path d="M188.2 211.6C188.2 211.6 159.784 219.272 157.632 220.04C155.48 220.808 155.792 225.728 155.792 226.8C155.792 227.872 149.496 260.128 149.496 260.128C147.481 261.398 145.578 262.838 143.808 264.432C141.352 266.736 142.272 269.808 142.272 270.576C142.272 271.344 142.424 271.648 141.656 272.416C140.888 273.184 139.2 271.808 139.512 276.568C139.824 281.328 138.128 292.568 142.424 293.152C146.72 293.736 148.88 293.312 155.176 291.16C158.883 289.925 162.001 287.36 163.928 283.96V302.088H241.032C241.032 302.088 248.864 279.2 249.328 264.152C249.792 249.104 251.784 226.976 249.024 222.832C246.264 218.688 231.664 214.08 218.76 212.544C205.856 211.008 190.504 210.984 188.2 211.6Z" fill="#0F2ABF"/>
<mask id="mask0_555_4326" style="mask-type:luminance" maskUnits="userSpaceOnUse" x="139" y="211" width="112" height="92">
<path d="M188.2 211.6C188.2 211.6 159.784 219.272 157.632 220.04C155.48 220.808 155.792 225.728 155.792 226.8C155.792 227.872 149.496 260.128 149.496 260.128C147.481 261.398 145.578 262.838 143.808 264.432C141.352 266.736 142.272 269.808 142.272 270.576C142.272 271.344 142.424 271.648 141.656 272.416C140.888 273.184 139.2 271.808 139.512 276.568C139.824 281.328 138.128 292.568 142.424 293.152C146.72 293.736 148.88 293.312 155.176 291.16C158.883 289.925 162.001 287.36 163.928 283.96V302.088H241.032C241.032 302.088 248.864 279.2 249.328 264.152C249.792 249.104 251.784 226.976 249.024 222.832C246.264 218.688 231.664 214.08 218.76 212.544C205.856 211.008 190.504 210.984 188.2 211.6Z" fill="white"/>
</mask>
<g mask="url(#mask0_555_4326)">
<g style="mix-blend-mode:multiply" opacity="0.24">
<path d="M246.088 220.32C246.488 220.792 246.656 221.192 246.312 221.352C245.256 221.856 240.296 223.456 239.696 225.56C239.096 227.664 239.344 219.16 238.192 221.648C237.04 224.136 235.48 233.984 229.168 253.84C224.12 269.688 221.384 289.944 223.088 302.064H241.032C241.032 302.064 248.864 279.176 249.328 264.128C249.792 249.08 251.784 226.952 249.024 222.808C248.225 221.788 247.226 220.941 246.088 220.32Z" fill="black"/>
</g>
<path d="M189.272 207.296C188.197 208.021 187.346 209.033 186.816 210.216C185.744 212.36 176.68 229.104 175.912 229.872C175.144 230.64 180.056 230.488 182.056 229.568C184.056 228.648 187.736 228.648 187.736 228.648L191.272 231.408L202.176 235.712C202.176 235.712 207.088 232.176 209.544 230.184C212 228.192 213.08 227.416 213.08 227.416C215.213 228.138 217.27 229.065 219.224 230.184C221.68 231.72 220.76 232.488 221.68 231.72C222.6 230.952 222.144 229.416 220.88 227.264C219.616 225.112 215.816 213.288 211.048 208.864C206.28 204.44 194.952 202.992 189.272 207.296Z" fill="#0F2ABF" stroke="#263238" stroke-width="0.8" stroke-linecap="round" stroke-linejoin="round"/>
<path d="M211.544 245.544L232.744 245.696L232.28 251.688L221.376 257.216L211.544 251.84V245.544Z" fill="#0F2ABF" stroke="#263238" stroke-width="0.8" stroke-linecap="round" stroke-linejoin="round"/>
<path d="M163.928 243.696L185.128 243.848L184.664 249.84L173.76 255.368L163.928 249.992V243.696Z" fill="#0F2ABF" stroke="#263238" stroke-width="0.8" stroke-linecap="round" stroke-linejoin="round"/>
<g style="mix-blend-mode:multiply" opacity="0.24">
<path d="M164.184 289.64C164.184 289.64 162.984 244.216 163.888 239.096C164.792 233.976 158.472 218.64 158.768 226.768C159.064 234.896 161.168 247.144 161.344 250.192C161.52 253.24 154.256 251.736 154.856 255.648C155.456 259.56 159.656 259.552 160.88 265.576C162.104 271.6 151.848 271.288 151.848 274.6C151.848 277.912 155.464 282.416 152.456 285.128C149.448 287.84 147.752 284.208 147.752 284.208C148.822 287.061 149.028 290.167 148.344 293.136C150.673 292.657 152.964 292.01 155.2 291.2C158.907 289.965 162.025 287.4 163.952 284V290.528L164.184 289.64Z" fill="black"/>
</g>
</g>
<path d="M188.2 211.6C188.2 211.6 159.784 219.272 157.632 220.04C155.48 220.808 155.792 225.728 155.792 226.8C155.792 227.872 149.496 260.128 149.496 260.128C147.481 261.398 145.578 262.838 143.808 264.432C141.352 266.736 142.272 269.808 142.272 270.576C142.272 271.344 142.424 271.648 141.656 272.416C140.888 273.184 139.2 271.808 139.512 276.568C139.824 281.328 138.128 292.568 142.424 293.152C146.72 293.736 148.88 293.312 155.176 291.16C158.883 289.925 162.001 287.36 163.928 283.96V302.088H241.032C241.032 302.088 248.864 279.2 249.328 264.152C249.792 249.104 251.784 226.976 249.024 222.832C246.264 218.688 231.664 214.08 218.76 212.544C205.856 211.008 190.504 210.984 188.2 211.6Z" stroke="#263238" stroke-width="0.8" stroke-linecap="round" stroke-linejoin="round"/>
<path d="M163.928 257.672V284.248C163.928 284.248 162.544 267.352 158.864 263.048" stroke="#263238" stroke-width="0.8" stroke-linecap="round" stroke-linejoin="round"/>
<path d="M143.2 272C143.2 272 151.344 274.92 153.032 280.904C154.72 286.888 152.728 290.736 152.728 290.736" stroke="#263238" stroke-width="0.8" stroke-linecap="round" stroke-linejoin="round"/>
<path d="M133.456 282.072C133.456 282.072 139.4 279.368 139.856 278.872C140.312 278.376 145.544 278.624 147.728 284.192C149.912 289.76 148.328 292.432 147.24 293.032C146.152 293.632 140.448 295.296 138.872 295.296C137.296 295.296 130.672 284.136 133.456 282.072Z" fill="#0F2ABF" stroke="#263238" stroke-width="0.8" stroke-linecap="round" stroke-linejoin="round"/>
<path d="M190.192 210.064C190.192 210.064 187.584 301.848 188.656 301.848H207.4C207.4 301.848 207.552 234.944 208.776 228.648C210 222.352 212.928 211.136 212.464 208.064C212 204.992 191.12 206.68 191.12 206.68C190.65 207.758 190.337 208.897 190.192 210.064Z" fill="white"/>
<mask id="mask1_555_4326" style="mask-type:luminance" maskUnits="userSpaceOnUse" x="188" y="206" width="25" height="96">
<path d="M190.192 210.064C190.192 210.064 187.584 301.848 188.656 301.848H207.4C207.4 301.848 207.552 234.944 208.776 228.648C210 222.352 212.928 211.136 212.464 208.064C212 204.992 191.12 206.68 191.12 206.68C190.65 207.758 190.337 208.897 190.192 210.064Z" fill="white"/>
</mask>
<g mask="url(#mask1_555_4326)">
<path d="M190.192 210.064C190.192 210.064 187.584 301.848 188.656 301.848H207.4C207.4 301.848 207.552 234.944 208.776 228.648C210 222.352 212.928 211.136 212.464 208.064C212 204.992 191.12 206.68 191.12 206.68C190.65 207.758 190.337 208.897 190.192 210.064Z" fill="#0F2ABF"/>
<path opacity="0.7" d="M190.192 210.064C190.192 210.064 187.584 301.848 188.656 301.848H207.4C207.4 301.848 207.552 234.944 208.776 228.648C210 222.352 212.928 211.136 212.464 208.064C212 204.992 191.12 206.68 191.12 206.68C190.65 207.758 190.337 208.897 190.192 210.064Z" fill="white"/>
</g>
<path d="M190.192 210.064C190.192 210.064 187.584 301.848 188.656 301.848H207.4C207.4 301.848 207.552 234.944 208.776 228.648C210 222.352 212.928 211.136 212.464 208.064C212 204.992 191.12 206.68 191.12 206.68C190.65 207.758 190.337 208.897 190.192 210.064Z" stroke="#263238" stroke-width="0.8" stroke-linecap="round" stroke-linejoin="round"/>
<path d="M208.664 229.408C202.515 231.384 195.941 231.625 189.664 230.104C188.96 257.544 187.904 301.848 188.656 301.848H207.4C207.4 301.848 207.544 239.144 208.664 229.408Z" fill="white"/>
<mask id="mask2_555_4326" style="mask-type:luminance" maskUnits="userSpaceOnUse" x="188" y="229" width="21" height="73">
<path d="M208.664 229.408C202.515 231.384 195.941 231.625 189.664 230.104C188.96 257.544 187.904 301.848 188.656 301.848H207.4C207.4 301.848 207.544 239.144 208.664 229.408Z" fill="white"/>
</mask>
<g mask="url(#mask2_555_4326)">
<path d="M207.44 292.52C207.44 290.008 207.44 287.168 207.488 284.12H188.504C188.504 287.192 188.432 290.024 188.416 292.52H207.44Z" fill="#263238"/>
<path d="M188.8 268.12C188.744 271 188.688 273.808 188.64 276.52H207.568C207.568 273.776 207.616 270.96 207.648 268.12H188.8Z" fill="#263238"/>
<path d="M189.128 252.12C189.064 254.912 189 257.72 188.944 260.52H207.72C207.76 257.656 207.8 254.832 207.848 252.12H189.128Z" fill="#263238"/>
<path d="M189.512 236.12C189.448 238.816 189.376 241.632 189.304 244.52H208C208.072 241.376 208.16 238.528 208.256 236.12H189.512Z" fill="#263238"/>
</g>
<path d="M208.664 229.408C202.515 231.384 195.941 231.625 189.664 230.104C188.96 257.544 187.904 301.848 188.656 301.848H207.4C207.4 301.848 207.544 239.144 208.664 229.408Z" stroke="#263238" stroke-width="0.8" stroke-linecap="round" stroke-linejoin="round"/>
<path d="M199.104 170.4C199.104 170.4 196.336 179.152 184.36 186.992C184.36 186.992 183.56 197.896 186.816 206.032C190.072 214.168 198.64 220.624 202.328 219.856C206.016 219.088 213.232 210.792 215.688 204.96C218.144 199.128 218.152 188.68 218.152 188.68C218.152 188.68 205.704 180.568 199.104 170.4Z" fill="white" stroke="#263238" stroke-width="0.8" stroke-linecap="round" stroke-linejoin="round"/>
<path d="M198.184 200.08C198.184 200.08 197.872 205.144 198.64 205.608C199.408 206.072 200.792 205.912 200.944 204.224" stroke="#263238" stroke-width="0.8" stroke-linecap="round" stroke-linejoin="round"/>
<path d="M196.648 208.8C196.648 208.8 201.408 209.72 204.016 208.184" stroke="#263238" stroke-width="0.8" stroke-linecap="round" stroke-linejoin="round"/>
<path d="M196.552 184.92C196.552 184.92 190.104 183.2 187.336 188" stroke="#263238" stroke-width="0.8" stroke-linecap="round" stroke-linejoin="round"/>
<path d="M202.752 188.6C202.752 188.6 207.224 184.096 213.528 188.16" stroke="#263238" stroke-width="0.8" stroke-linecap="round" stroke-linejoin="round"/>
<path d="M189.12 194.544C189.12 194.544 192.04 197.312 196.8 195.344" stroke="#263238" stroke-width="0.8" stroke-linecap="round" stroke-linejoin="round"/>
<path d="M203.688 195.2C203.688 195.2 207.688 197.048 211.056 194.896" stroke="#263238" stroke-width="0.8" stroke-linecap="round" stroke-linejoin="round"/>
<path d="M192.136 202.224C195.697 202.224 198.584 199.337 198.584 195.776C198.584 192.215 195.697 189.328 192.136 189.328C188.575 189.328 185.688 192.215 185.688 195.776C185.688 199.337 188.575 202.224 192.136 202.224Z" stroke="#263238" stroke-width="0.6" stroke-linecap="round" stroke-linejoin="round"/>
<path d="M207.528 202.224C211.089 202.224 213.976 199.337 213.976 195.776C213.976 192.215 211.089 189.328 207.528 189.328C203.967 189.328 201.08 192.215 201.08 195.776C201.08 199.337 203.967 202.224 207.528 202.224Z" stroke="#263238" stroke-width="0.6" stroke-linecap="round" stroke-linejoin="round"/>
<path d="M198.584 195.776H201.072" stroke="#263238" stroke-width="0.6" stroke-linecap="round" stroke-linejoin="round"/>
<path d="M213.976 195.776H217.752" stroke="#263238" stroke-width="0.6" stroke-linecap="round" stroke-linejoin="round"/>
<path d="M183.96 195.776H185.672" stroke="#263238" stroke-width="0.6" stroke-linecap="round" stroke-linejoin="round"/>
<path d="M194.56 196.176C194.56 196.176 196.2 196.248 194.664 196.816C193.128 197.384 191.576 197.104 189.984 195.752C189.984 195.752 193.032 196.152 194.56 196.176Z" fill="#263238" stroke="#263238" stroke-width="0.8" stroke-linecap="round" stroke-linejoin="round"/>
<path d="M205.68 195.792C205.68 195.792 204.08 195.648 205.496 196.408C206.912 197.168 208.52 197.104 210.296 195.96C210.272 196 207.2 196 205.68 195.792Z" fill="#263238" stroke="#263238" stroke-width="0.8" stroke-linecap="round" stroke-linejoin="round"/>
<path d="M229.976 249.224L227.52 223.88C227.52 223.88 222.296 222.808 220.456 221.576C218.616 220.344 216.456 218.816 216.456 218.816C216.456 218.816 215.232 219.888 214.312 218.816C213.392 217.744 210.472 215.616 210.008 213.896C209.544 212.176 212.776 209.896 214.768 207.144C216.76 204.392 218.92 201.768 220.456 201.92C221.992 202.072 228.592 208.8 232 214.056C235.408 219.312 236.76 220.656 236.912 222.504C237.064 224.352 240.112 233.704 240.112 233.704L240.912 249.528L229.976 249.224Z" fill="white" stroke="#263238" stroke-width="0.8" stroke-linecap="round" stroke-linejoin="round"/>
<path d="M216.456 218.816C216.456 218.816 213.432 215.832 213.432 214.936" stroke="#263238" stroke-width="0.8" stroke-linecap="round" stroke-linejoin="round"/>
<path d="M224.752 234.56L227.672 250.84L230.872 232.712L243.312 231.336C243.312 231.336 243.2 250.688 243.2 255.6C243.2 260.512 245.352 282.944 245.968 290.8C246.584 298.656 242.432 301.2 236.752 301.392C231.072 301.584 226.456 296.328 224.616 285.728C222.776 275.128 224.92 255.776 224 252.552C223.08 249.328 219.2 236.12 219.2 236.12L224.752 234.56Z" fill="#0F2ABF"/>
<mask id="mask3_555_4326" style="mask-type:luminance" maskUnits="userSpaceOnUse" x="219" y="231" width="28" height="71">
<path d="M224.752 234.56L227.672 250.84L230.872 232.712L243.312 231.336C243.312 231.336 243.2 250.688 243.2 255.6C243.2 260.512 245.352 282.944 245.968 290.8C246.584 298.656 242.432 301.2 236.752 301.392C231.072 301.584 226.456 296.328 224.616 285.728C222.776 275.128 224.92 255.776 224 252.552C223.08 249.328 219.2 236.12 219.2 236.12L224.752 234.56Z" fill="white"/>
</mask>
<g mask="url(#mask3_555_4326)">
<g style="mix-blend-mode:multiply" opacity="0.24">
<path d="M238.704 301.2C243.336 300.512 246.488 297.672 245.952 290.8C245.336 282.968 243.184 260.544 243.184 255.6C243.184 250.656 243.336 231.336 243.336 231.336L241.32 231.56C240.16 235.424 233.696 258.104 236.984 274.296C240.6 292.048 243.608 293.848 238.792 301.072L238.704 301.2Z" fill="black"/>
</g>
</g>
<path d="M224.752 234.56L227.672 250.84L230.872 232.712L243.312 231.336C243.312 231.336 243.2 250.688 243.2 255.6C243.2 260.512 245.352 282.944 245.968 290.8C246.584 298.656 242.432 301.2 236.752 301.392C231.072 301.584 226.456 296.328 224.616 285.728C222.776 275.128 224.92 255.776 224 252.552C223.08 249.328 219.2 236.12 219.2 236.12L224.752 234.56Z" stroke="#263238" stroke-width="0.8" stroke-linecap="round" stroke-linejoin="round"/>
<path d="M127.096 298C127.096 298 126.728 300.472 128.968 301.032C131.208 301.592 136.592 300.192 137.04 299.04C137.173 298.724 137.211 298.376 137.148 298.039C137.086 297.702 136.926 297.391 136.688 297.144H131.776C131.776 297.144 128.072 296 127.096 298Z" fill="white" stroke="#263238" stroke-width="0.8" stroke-linecap="round" stroke-linejoin="round"/>
<path d="M105.104 271.344L125.464 285.488L126.984 283.464L106.528 269.2L105.104 271.344Z" fill="#263238" stroke="#263238" stroke-width="0.8" stroke-linecap="round" stroke-linejoin="round"/>
<path d="M109.832 274.624L111.416 272.608L106.528 269.2L105.104 271.344L109.832 274.624Z" fill="white" stroke="#263238" stroke-width="0.8" stroke-linecap="round" stroke-linejoin="round"/>
<path d="M130.288 297.784C133.475 297.634 136.508 296.368 138.856 294.208C142.504 290.656 142.752 288.28 137.824 283.176C132.896 278.072 122.12 284.048 121.776 286.304C121.432 288.56 130.288 297.784 130.288 297.784Z" fill="white" stroke="#263238" stroke-width="0.8" stroke-linecap="round" stroke-linejoin="round"/>
<path d="M141.192 288.56C141.192 288.56 139.8 291.464 138.48 292.56C137.16 293.656 135.064 293.952 133.824 292.184C132.584 290.416 131.312 284.928 130.232 284.816C129.152 284.704 123.768 282.936 122.232 280.816C120.696 278.696 120.776 277.056 124.16 278.064C127.544 279.072 136.6 280.248 136.6 280.248C136.6 280.248 138.744 281.536 140.232 286.056" fill="white"/>
<path d="M141.192 288.56C141.192 288.56 139.8 291.464 138.48 292.56C137.16 293.656 135.064 293.952 133.824 292.184C132.584 290.416 131.312 284.928 130.232 284.816C129.152 284.704 123.768 282.936 122.232 280.816C120.696 278.696 120.776 277.056 124.16 278.064C127.544 279.072 136.6 280.248 136.6 280.248C136.6 280.248 138.744 281.536 140.232 286.056" stroke="#263238" stroke-width="0.8" stroke-linecap="round" stroke-linejoin="round"/>
<path d="M123.776 295.36C124.256 295.952 125.832 298.632 126.576 298.816C127.32 299 131.888 296.096 133.648 293.88C135.408 291.664 132.128 288.592 131.192 288.16C130.256 287.728 123.776 295.36 123.776 295.36Z" fill="white" stroke="#263238" stroke-width="0.8" stroke-linecap="round" stroke-linejoin="round"/>
<path d="M121.448 287.36C121.448 287.36 117.448 289.76 118.4 291.408C119.352 293.056 122.552 295.56 123.576 295.12C124.6 294.68 131.496 291.472 131.464 289.72C131.432 287.968 131.32 285.88 127.792 286.168C125.642 286.348 123.516 286.747 121.448 287.36Z" fill="white" stroke="#263238" stroke-width="0.8" stroke-linecap="round" stroke-linejoin="round"/>
<path d="M117.448 280.712C117.448 280.712 115.504 284.664 117.288 286.376C119.072 288.088 130.088 288.048 130.648 286.032C131.208 284.016 127.08 283.584 124.048 282.28C121.016 280.976 117.872 279.776 117.448 280.712Z" fill="white" stroke="#263238" stroke-width="0.8" stroke-linecap="round" stroke-linejoin="round"/>
<path d="M160.168 301.296C160.168 301.296 159.864 296.072 155.256 294.232C150.648 292.392 148.184 293.152 137.896 295.92C131.413 297.616 124.773 298.645 118.08 298.992V301.296H160.168Z" fill="white" stroke="#263238" stroke-width="0.8" stroke-linecap="round" stroke-linejoin="round"/>
<path d="M160 301.296C160 301.296 160.304 296.072 164.912 294.232C169.52 292.392 171.976 293.152 182.272 295.92C188.753 297.616 195.39 298.645 202.08 298.992V301.296H160Z" fill="white" stroke="#263238" stroke-width="0.8" stroke-linecap="round" stroke-linejoin="round"/>
<path d="M203.792 300.376H117.008V302.064H203.792V300.376Z" fill="#263238" stroke="#263238" stroke-width="0.8" stroke-linecap="round" stroke-linejoin="round"/>
<path d="M66.3999 302.064H345.328" stroke="#263238" stroke-width="0.8" stroke-linecap="round" stroke-linejoin="round"/>
<path d="M342.128 255.68H282.992L262.872 302.216H322.008L342.128 255.68Z" fill="white" stroke="#263238" stroke-width="0.8" stroke-linecap="round" stroke-linejoin="round"/>
<path d="M344.432 255.68H285.296L265.176 302.216H324.312L344.432 255.68Z" fill="#263238" stroke="#263238" stroke-width="0.8" stroke-linecap="round" stroke-linejoin="round"/>
<path d="M309.536 284C308.016 286.4 305.168 287.344 303.176 286.08C301.184 284.816 300.776 281.848 302.312 279.44C303.848 277.032 306.68 276.104 308.712 277.36C310.744 278.616 311.056 281.6 309.536 284Z" fill="white" stroke="#3E4B99" stroke-width="0.8" stroke-linecap="round" stroke-linejoin="round"/>
<path d="M263.64 300.376H220.48V302.064H263.64V300.376Z" fill="white" stroke="#263238" stroke-width="0.8" stroke-linecap="round" stroke-linejoin="round"/>
</svg>
